<svg width="814" height="648" viewBox="0 0 814 648" fill="none" xmlns="http://www.w3.org/2000/svg">
<path d="M218.488 528.444C267.952 528.444 317.416 528.444 366.88 528.444C416.182 528.444 465.484 528.444 514.732 528.444C542.596 528.444 570.514 528.444 598.378 528.444C599.404 528.444 599.404 526.824 598.378 526.824C548.914 526.824 499.45 526.824 449.986 526.824C400.684 526.824 351.382 526.824 302.134 526.824C274.27 526.824 246.352 526.824 218.488 526.824C217.462 526.824 217.462 528.444 218.488 528.444Z" fill="#E8E8E8"/>
<path d="M608.368 494.856C607.936 510.408 609.502 525.96 613.066 541.134C613.282 542.16 614.848 541.728 614.632 540.702C611.122 525.69 609.556 510.3 610.042 494.856C609.988 493.83 608.368 493.83 608.368 494.856Z" fill="#E8E8E8"/>
<path d="M672.682 496.098C674.194 510.462 673.276 524.988 669.982 539.028C669.766 540.054 671.278 540.486 671.548 539.46C674.896 525.258 675.868 510.624 674.302 496.098C674.194 495.072 672.574 495.072 672.682 496.098Z" fill="#E8E8E8"/>
<path d="M613.714 542.646C632.398 547.398 652.162 546.75 670.468 540.702C671.44 540.378 671.008 538.812 670.036 539.136C651.946 545.076 632.56 545.778 614.146 541.08C613.12 540.864 612.688 542.43 613.714 542.646Z" fill="#E8E8E8"/>
<path d="M609.124 495.612C630.13 500.094 651.892 499.986 672.844 495.342C673.87 495.126 673.438 493.56 672.412 493.776C651.73 498.366 630.238 498.42 609.556 494.046C608.53 493.83 608.098 495.396 609.124 495.612Z" fill="#E8E8E8"/>
<path d="M621.922 496.206C619.114 489.888 621.652 482.166 623.758 475.956C625.918 469.53 628.996 463.428 632.776 457.812C632.344 457.866 631.912 457.92 631.48 457.974C632.722 459.378 634.072 460.35 635.746 461.16C636.394 461.43 637.096 460.998 636.934 460.242C636.286 457.326 635.152 454.464 636.448 451.548C637.366 449.496 638.662 447.444 639.742 445.5C639.364 445.608 638.986 445.716 638.608 445.77C639.742 446.472 640.876 447.12 642.01 447.822C642.766 448.308 643.414 447.39 643.144 446.688C642.01 444.204 641.254 441.72 642.82 439.236C643.738 437.724 644.926 436.374 645.952 434.97C648.22 431.946 650.596 428.922 652.972 425.952C657.508 420.282 662.206 414.774 667.066 409.374C666.634 409.32 666.202 409.266 665.77 409.212C672.682 418.284 677.056 429.138 678.244 440.478C678.838 445.932 678.676 451.548 677.704 456.948C677.218 459.702 676.516 462.402 675.652 465.048C675.49 465.588 675.274 466.128 675.112 466.614C674.518 468.126 673.546 468.774 671.98 469.098C670.9 469.314 670.306 469.152 669.388 469.854C668.956 470.178 668.848 470.718 669.226 471.15C670.414 472.392 670.9 472.608 670.468 474.282C670.198 475.362 669.55 476.496 669.064 477.576C668.092 479.736 667.012 481.842 665.878 483.894C663.556 488.106 660.91 492.102 657.94 495.882C657.292 496.692 658.426 497.826 659.074 497.016C664.798 489.672 669.334 481.626 672.736 472.986C672.844 472.716 672.736 472.392 672.52 472.176C671.818 471.474 671.116 470.718 670.36 470.016C670.306 470.448 670.252 470.88 670.198 471.312C671.44 470.448 672.844 471.042 674.14 470.502C675.166 470.124 675.706 469.368 676.138 468.396C677.326 465.858 678.082 462.942 678.73 460.242C680.08 454.302 680.512 448.2 680.08 442.152C679.162 429.948 674.68 418.122 667.228 408.402C666.958 408.024 666.364 407.808 665.932 408.24C659.938 414.882 654.16 421.74 648.652 428.76C646.168 431.892 643.522 435.024 641.362 438.426C639.418 441.504 640.336 444.42 641.686 447.552C642.064 447.174 642.442 446.796 642.82 446.418C641.686 445.716 640.552 445.068 639.418 444.366C639.04 444.15 638.5 444.258 638.284 444.636C636.934 447.12 634.828 449.874 634.072 452.628C633.424 455.058 634.774 458.244 635.314 460.62C635.692 460.296 636.124 460.026 636.502 459.702C634.936 459 633.694 458.082 632.56 456.786C632.182 456.354 631.534 456.516 631.264 456.948C627.052 463.212 623.758 470.07 621.49 477.306C619.546 483.57 617.656 490.698 620.41 496.962C620.95 497.934 622.354 497.124 621.922 496.206Z" fill="#E8E8E8"/>
<path d="M665.878 421.632C663.718 446.094 646.978 465.696 640.012 488.7C639.688 489.726 641.254 490.104 641.578 489.132C648.544 465.966 665.338 446.31 667.498 421.632C667.606 420.552 665.932 420.606 665.878 421.632Z" fill="#E8E8E8"/>
<path d="M645.466 434.646C647.194 443.556 649.192 452.358 651.46 461.106C651.73 462.132 653.296 461.7 653.026 460.674C650.758 451.926 648.76 443.07 647.032 434.214C646.87 433.188 645.304 433.62 645.466 434.646Z" fill="#E8E8E8"/>
<path d="M663.718 440.37C668.416 436.968 672.466 432.918 675.976 428.22C676.624 427.41 675.22 426.6 674.572 427.41C671.278 431.838 667.39 435.726 662.908 438.966C662.098 439.614 662.908 441.018 663.718 440.37Z" fill="#E8E8E8"/>
<path d="M658.696 417.258C660.154 421.902 661.018 427.572 664.582 431.082C665.338 431.838 666.472 430.65 665.716 429.948C662.422 426.654 661.558 421.092 660.208 416.826C659.938 415.854 658.372 416.286 658.696 417.258Z" fill="#E8E8E8"/>
<path d="M618.682 495.774C615.388 493.182 613.39 489.564 611.716 485.784C609.826 481.356 608.206 476.82 606.748 472.23C603.994 463.428 601.996 454.356 600.808 445.23C598.378 426.114 600.322 406.782 598 387.612C597.514 387.774 596.974 387.882 596.488 388.044C602.536 401.652 616.684 409.806 628.456 417.906C628.348 417.528 628.24 417.15 628.186 416.772C626.566 419.094 624.946 421.416 623.326 423.738C622.948 424.278 623.434 424.98 624.028 424.98C626.134 424.98 627.97 424.71 629.968 424.008C629.644 423.9 629.374 423.738 629.05 423.63C631.048 426.708 633.046 429.786 635.044 432.864C635.098 432.54 635.152 432.216 635.152 431.892C634.18 432.81 633.37 433.836 632.56 434.97C632.29 435.348 632.56 436.104 633.046 436.158C637.474 436.806 639.04 441.018 640.174 444.798C640.498 445.77 642.064 445.392 641.74 444.366C640.39 440.1 638.446 435.294 633.478 434.592C633.64 434.97 633.802 435.402 633.964 435.78C634.666 434.7 635.368 433.944 636.286 433.08C636.556 432.864 636.61 432.378 636.394 432.108C634.396 429.03 632.398 425.952 630.4 422.874C630.238 422.604 629.86 422.388 629.482 422.496C627.646 423.09 625.864 423.414 623.974 423.36C624.19 423.792 624.46 424.17 624.676 424.602C626.296 422.28 627.916 419.958 629.536 417.636C629.806 417.258 629.59 416.772 629.266 416.502C617.71 408.564 603.832 400.626 597.892 387.234C597.568 386.532 596.272 386.856 596.38 387.666C598.756 407.538 596.65 427.626 599.458 447.444C600.808 457.002 603.022 466.398 606.1 475.524C608.584 482.922 611.176 491.94 617.494 496.962C618.358 497.556 619.492 496.422 618.682 495.774Z" fill="#E8E8E8"/>
<path d="M596.812 389.232C601.186 401.328 604.858 414.072 610.744 425.574C613.66 431.244 616.846 436.806 619.6 442.584C622.57 448.848 625.216 455.22 627.916 461.538C628.294 462.51 629.698 461.646 629.32 460.728C626.782 454.68 624.19 448.632 621.436 442.692C618.736 436.86 615.604 431.298 612.58 425.628C606.532 414.072 602.806 401.112 598.324 388.854C598 387.828 596.434 388.26 596.812 389.232Z" fill="#E8E8E8"/>
<path d="M598.864 430.272C604.696 430.974 611.068 431.298 615.496 435.672C616.252 436.428 617.386 435.24 616.63 434.538C611.878 429.894 605.128 429.462 598.864 428.706C597.838 428.544 597.838 430.164 598.864 430.272Z" fill="#E8E8E8"/>
<path d="M614.47 408.402C613.498 411.912 612.85 415.53 612.58 419.202C612.364 422.334 611.986 426.006 613.066 429.03C613.39 430.002 614.956 429.57 614.632 428.598C613.606 425.736 613.984 422.172 614.2 419.148C614.47 415.638 615.118 412.182 616.036 408.78C616.306 407.808 614.74 407.376 614.47 408.402Z" fill="#E8E8E8"/>
<path d="M602.536 459.702C606.748 459.81 610.798 459.864 614.902 460.998C618.952 462.132 622.948 463.32 626.998 464.508C628.024 464.778 628.456 463.212 627.43 462.942C623.11 461.7 618.844 460.35 614.47 459.216C610.528 458.19 606.586 458.244 602.536 458.136C601.51 458.028 601.51 459.648 602.536 459.702Z" fill="#E8E8E8"/>
<path d="M661.612 494.262C665.23 493.776 668.794 493.776 672.412 494.262C672.25 493.884 672.088 493.452 671.926 493.074C671.602 493.56 668.362 493.614 667.714 493.668C666.256 493.884 664.744 494.1 663.286 494.424C663.07 494.478 661.612 494.64 661.558 494.802C661.666 494.532 663.826 494.586 664.15 494.586C665.716 494.586 667.282 494.748 668.848 494.856C668.848 494.316 668.848 493.776 668.848 493.236C667.498 493.182 666.31 493.344 664.96 493.722C664.096 493.938 664.258 495.288 665.176 495.288C667.282 495.288 669.172 494.856 671.224 494.316C672.25 494.046 671.818 492.48 670.792 492.75C668.956 493.236 667.12 493.668 665.176 493.668C665.23 494.208 665.338 494.748 665.392 495.234C666.526 494.91 667.66 494.802 668.848 494.802C669.874 494.802 669.874 493.236 668.848 493.182C666.472 493.074 663.016 492.21 660.856 493.56C659.992 494.1 658.75 495.504 659.884 496.368C660.37 496.746 660.91 496.53 661.504 496.476C663.124 496.152 664.69 495.774 666.31 495.504C668.2 495.18 671.98 495.666 673.276 493.884C673.546 493.506 673.276 492.75 672.79 492.696C669.01 492.156 665.338 492.156 661.558 492.642C660.586 492.75 660.586 494.37 661.612 494.262Z" fill="#E8E8E8"/>
<path d="M609.826 495.288C610.582 495.072 611.338 494.91 612.094 494.856C612.472 494.856 612.796 494.802 613.174 494.856C613.336 494.856 614.092 494.802 614.146 494.856C614.092 494.586 613.984 494.316 613.93 494.046C613.93 494.1 613.876 494.154 613.876 494.154C614.2 493.992 614.524 493.776 614.848 493.614C614.794 493.614 614.74 493.614 614.74 493.614C614.902 493.776 615.118 493.992 615.28 494.154C615.28 494.1 615.28 494.046 615.226 494.046C614.956 493.02 613.444 493.452 613.66 494.478C613.66 494.532 613.66 494.586 613.714 494.586C613.768 494.856 614.038 495.072 614.254 495.126C614.308 495.126 614.362 495.126 614.362 495.126C614.794 495.234 615.172 495.018 615.334 494.586C615.334 494.532 615.388 494.478 615.388 494.478C615.496 494.208 615.388 493.884 615.172 493.668C614.578 493.074 613.282 493.182 612.526 493.182C611.446 493.182 610.312 493.398 609.286 493.668C608.422 493.992 608.854 495.558 609.826 495.288Z" fill="#E8E8E8"/>
<path d="M611.068 506.142C630.778 509.544 651.244 511.164 670.684 505.332C671.656 505.008 671.278 503.496 670.252 503.766C651.136 509.49 630.94 507.924 611.5 504.576C610.474 504.414 610.042 505.98 611.068 506.142Z" fill="#E8E8E8"/>
<path d="M678.946 528.336C713.56 528.336 748.228 528.336 782.842 528.336C783.868 528.336 783.868 526.716 782.842 526.716C748.228 526.716 713.56 526.716 678.946 526.716C677.866 526.716 677.866 528.336 678.946 528.336Z" fill="#E8E8E8"/>
<path d="M652.756 563.058C685.372 563.058 718.042 563.058 750.658 563.058C751.684 563.058 751.684 561.438 750.658 561.438C718.042 561.438 685.372 561.438 652.756 561.438C651.73 561.438 651.73 563.058 652.756 563.058Z" fill="#E8E8E8"/>
<path d="M667.606 562.896C663.718 566.136 659.83 569.322 655.996 572.562C655.186 573.21 656.32 574.344 657.13 573.696C661.018 570.456 664.906 567.27 668.74 564.03C669.55 563.382 668.362 562.194 667.606 562.896Z" fill="#E8E8E8"/>
<path d="M656.482 574.29C657.508 574.29 657.508 572.67 656.482 572.67C655.456 572.67 655.456 574.29 656.482 574.29Z" fill="#E8E8E8"/>
<path d="M672.952 572.67C640.066 572.67 607.18 572.67 574.294 572.67C573.268 572.67 573.268 574.29 574.294 574.29C607.18 574.29 640.066 574.29 672.952 574.29C673.978 574.29 673.978 572.67 672.952 572.67Z" fill="#E8E8E8"/>
<path d="M574.132 589.41C579.964 584.55 585.958 579.906 592.114 575.424C592.924 574.83 592.168 573.426 591.304 574.02C585.04 578.556 578.938 583.308 572.998 588.222C572.188 588.924 573.322 590.058 574.132 589.41Z" fill="#E8E8E8"/>
<path d="M82.516 559.926C120.64 559.926 158.764 559.926 196.888 559.926C207.688 559.926 218.488 559.926 229.288 559.926C230.314 559.926 230.314 558.306 229.288 558.306C191.164 558.306 153.04 558.306 114.916 558.306C104.116 558.306 93.316 558.306 82.516 558.306C81.49 558.306 81.49 559.926 82.516 559.926Z" fill="#E8E8E8"/>
<path d="M102.442 574.02C107.572 569.646 112.756 565.272 117.886 560.898C118.696 560.196 117.508 559.062 116.752 559.764C111.622 564.138 106.438 568.512 101.308 572.886C100.498 573.534 101.686 574.722 102.442 574.02Z" fill="#E8E8E8"/>
<path d="M83.866 575.586C119.29 575.586 154.714 575.586 190.138 575.586C191.164 575.586 191.164 573.966 190.138 573.966C154.714 573.966 119.29 573.966 83.866 573.966C82.84 573.966 82.84 575.586 83.866 575.586Z" fill="#E8E8E8"/>
<path d="M177.772 575.262C173.722 579.798 169.564 584.226 165.352 588.654C164.65 589.41 165.784 590.544 166.486 589.788C170.698 585.36 174.802 580.932 178.906 576.396C179.662 575.64 178.474 574.506 177.772 575.262Z" fill="#E8E8E8"/>
<path d="M150.124 591.246C181.282 591.246 212.386 591.246 243.544 591.246C244.57 591.246 244.57 589.626 243.544 589.626C212.386 589.626 181.282 589.626 150.124 589.626C149.098 589.626 149.098 591.246 150.124 591.246Z" fill="#E8E8E8"/>
<path d="M128.038 532.764C141.214 532.764 154.39 532.764 167.62 532.764C168.646 532.764 168.646 531.144 167.62 531.144C154.444 531.144 141.268 531.144 128.038 531.144C127.012 531.144 127.012 532.764 128.038 532.764Z" fill="#E8E8E8"/>
<path d="M177.61 538.056C181.66 538.056 185.764 538.056 189.814 538.056C190.84 538.056 190.84 536.436 189.814 536.436C185.764 536.436 181.66 536.436 177.61 536.436C176.53 536.436 176.53 538.056 177.61 538.056Z" fill="#E8E8E8"/>
<path d="M148.288 249.318C148.288 258.12 148.288 266.976 148.288 275.778C148.288 276.804 149.908 276.804 149.908 275.778C149.908 266.976 149.908 258.12 149.908 249.318C149.908 248.292 148.288 248.292 148.288 249.318Z" fill="#E8E8E8"/>
<path d="M121.126 277.074C142.834 277.074 164.542 277.074 186.25 277.074C187.276 277.074 187.276 275.454 186.25 275.454C164.542 275.454 142.834 275.454 121.126 275.454C120.1 275.454 120.1 277.074 121.126 277.074Z" fill="#E8E8E8"/>
<path d="M166.594 277.83C166.594 284.634 166.594 291.384 166.594 298.188C166.594 299.214 168.214 299.214 168.214 298.188C168.214 291.384 168.214 284.634 168.214 277.83C168.214 276.75 166.594 276.75 166.594 277.83Z" fill="#E8E8E8"/>
<path d="M148.612 300.996C165.892 300.996 183.226 300.996 200.506 300.996C201.532 300.996 201.532 299.376 200.506 299.376C183.226 299.376 165.892 299.376 148.612 299.376C147.532 299.376 147.532 300.996 148.612 300.996Z" fill="#E8E8E8"/>
<path d="M584.392 230.364C584.392 232.524 584.392 234.63 584.392 236.79C584.392 237.816 586.012 237.816 586.012 236.79C586.012 234.63 586.012 232.524 586.012 230.364C586.012 229.338 584.392 229.338 584.392 230.364Z" fill="#E8E8E8"/>
<path d="M585.688 231.66C622.84 231.66 659.992 231.66 697.144 231.66C698.17 231.66 698.17 230.04 697.144 230.04C659.992 230.04 622.84 230.04 585.688 230.04C584.662 230.04 584.662 231.66 585.688 231.66Z" fill="#E8E8E8"/>
<path d="M586.66 237.6C623.488 237.6 660.316 237.6 697.09 237.6C698.116 237.6 698.116 235.98 697.09 235.98C660.262 235.98 623.434 235.98 586.66 235.98C585.634 235.98 585.634 237.6 586.66 237.6Z" fill="#E8E8E8"/>
<path d="M696.874 230.364C696.658 232.578 696.766 234.792 697.144 237.006C697.306 238.032 698.872 237.6 698.71 236.574C698.332 234.522 698.278 232.416 698.494 230.364C698.602 229.338 696.982 229.338 696.874 230.364Z" fill="#E8E8E8"/>
<path d="M593.302 230.418C593.302 215.352 593.302 200.286 593.302 185.22C593.302 184.194 591.682 184.194 591.682 185.22C591.682 200.286 591.682 215.352 591.682 230.418C591.682 231.498 593.302 231.498 593.302 230.418Z" fill="#E8E8E8"/>
<path d="M593.302 185.49C597.892 183.654 602.752 183.924 607.018 186.462C607.936 187.002 608.746 185.598 607.828 185.058C603.238 182.358 597.784 181.926 592.87 183.924C591.898 184.302 592.33 185.868 593.302 185.49Z" fill="#E8E8E8"/>
<path d="M606.748 186.084C606.748 200.556 606.748 215.082 606.748 229.554C606.748 230.58 608.368 230.58 608.368 229.554C608.368 215.082 608.368 200.556 608.368 186.084C608.368 185.058 606.748 185.058 606.748 186.084Z" fill="#E8E8E8"/>
<path d="M608.584 198.18C611.878 196.83 615.334 197.046 618.412 198.936C619.33 199.476 620.14 198.072 619.222 197.532C615.82 195.48 611.824 195.102 608.152 196.614C607.18 196.992 607.612 198.558 608.584 198.18Z" fill="#E8E8E8"/>
<path d="M618.088 198.882C618.088 209.034 618.088 219.132 618.088 229.284C618.088 230.31 619.708 230.31 619.708 229.284C619.708 219.132 619.708 209.034 619.708 198.882C619.708 197.856 618.088 197.856 618.088 198.882Z" fill="#E8E8E8"/>
<path d="M593.518 197.91C598.108 196.884 602.644 197.208 607.072 198.774C608.044 199.098 608.476 197.532 607.504 197.208C602.806 195.534 597.946 195.318 593.086 196.344C592.114 196.56 592.546 198.126 593.518 197.91Z" fill="#E8E8E8"/>
<path d="M607.45 216.648C610.906 215.73 614.362 215.622 617.872 216.378C618.898 216.594 619.33 215.028 618.304 214.812C614.524 214.002 610.798 214.056 607.018 215.082C606.046 215.352 606.424 216.918 607.45 216.648Z" fill="#E8E8E8"/>
<path d="M638.5 229.878C638.5 226.854 638.5 223.83 638.5 220.806C638.5 219.78 636.88 219.78 636.88 220.806C636.88 223.83 636.88 226.854 636.88 229.878C636.88 230.904 638.5 230.904 638.5 229.878Z" fill="#E8E8E8"/>
<path d="M637.69 221.292C655.24 221.292 672.736 221.292 690.286 221.292C691.312 221.292 691.312 219.672 690.286 219.672C672.736 219.672 655.24 219.672 637.69 219.672C636.61 219.672 636.61 221.292 637.69 221.292Z" fill="#E8E8E8"/>
<path d="M690.826 222.156C691.852 222.156 691.852 220.536 690.826 220.536C689.746 220.536 689.746 222.156 690.826 222.156Z" fill="#E8E8E8"/>
<path d="M690.016 221.346C690.016 224.1 690.016 226.854 690.016 229.608C690.016 230.634 691.636 230.634 691.636 229.608C691.636 226.854 691.636 224.1 691.636 221.346C691.636 220.32 690.016 220.32 690.016 221.346Z" fill="#E8E8E8"/>
<path d="M648.706 220.212C648.706 217.35 648.706 214.542 648.706 211.68C648.706 210.654 647.086 210.654 647.086 211.68C647.086 214.542 647.086 217.35 647.086 220.212C647.086 221.238 648.706 221.238 648.706 220.212Z" fill="#E8E8E8"/>
<path d="M647.896 212.22C665.122 212.22 682.348 212.22 699.628 212.22C700.654 212.22 700.654 210.6 699.628 210.6C682.402 210.6 665.176 210.6 647.896 210.6C646.87 210.6 646.87 212.22 647.896 212.22Z" fill="#E8E8E8"/>
<path d="M699.088 211.41C699.088 213.786 699.088 216.162 699.088 218.538C699.088 219.564 700.708 219.564 700.708 218.538C700.708 216.162 700.708 213.786 700.708 211.41C700.708 210.33 699.088 210.33 699.088 211.41Z" fill="#E8E8E8"/>
<path d="M689.692 221.562C692.824 221.562 695.956 221.562 699.088 221.562C700.114 221.562 700.114 219.942 699.088 219.942C695.956 219.942 692.824 219.942 689.692 219.942C688.612 219.942 688.612 221.562 689.692 221.562Z" fill="#E8E8E8"/>
<path d="M698.98 218.592C698.872 219.186 698.872 219.726 699.034 220.266C699.142 220.698 699.628 220.968 700.006 220.806C700.438 220.698 700.708 220.212 700.546 219.834C700.492 219.564 700.438 219.24 700.492 219.024C700.546 218.592 700.384 218.106 699.952 218.052C699.574 217.944 699.034 218.16 698.98 218.592Z" fill="#E8E8E8"/>
<path d="M660.208 211.788C660.91 214.542 661.072 217.35 660.694 220.212C660.586 221.238 662.206 221.238 662.314 220.212C662.692 217.242 662.476 214.272 661.774 211.356C661.504 210.384 659.938 210.816 660.208 211.788Z" fill="#E8E8E8"/>
<path d="M672.412 221.184C672.79 223.884 672.574 226.53 671.926 229.122C671.656 230.148 673.222 230.58 673.492 229.554C674.248 226.638 674.41 223.722 673.978 220.752C673.87 219.726 672.304 220.158 672.412 221.184Z" fill="#E8E8E8"/>
<path d="M661.828 286.902C661.828 291.168 661.828 295.38 661.828 299.646C661.828 300.672 663.448 300.672 663.448 299.646C663.448 295.38 663.448 291.168 663.448 286.902C663.448 285.822 661.828 285.822 661.828 286.902Z" fill="#E8E8E8"/>
<path d="M649.3 299.862C660.1 299.862 670.9 299.862 681.7 299.862C682.726 299.862 682.726 298.242 681.7 298.242C670.9 298.242 660.1 298.242 649.3 298.242C648.274 298.242 648.274 299.862 649.3 299.862Z" fill="#E8E8E8"/>
<path d="M630.886 118.206C630.886 127.926 630.886 137.7 630.886 147.42C630.886 148.446 632.506 148.446 632.506 147.42C632.506 137.7 632.506 127.926 632.506 118.206C632.506 117.18 630.886 117.18 630.886 118.206Z" fill="#E8E8E8"/>
<path d="M632.938 118.152C645.25 118.152 657.508 118.152 669.82 118.152C670.846 118.152 670.846 116.532 669.82 116.532C657.508 116.532 645.25 116.532 632.938 116.532C631.912 116.532 631.912 118.152 632.938 118.152Z" fill="#E8E8E8"/>
<path d="M669.874 117.936C669.874 127.332 669.874 136.728 669.874 146.07C669.874 147.096 671.494 147.096 671.494 146.07C671.494 136.674 671.494 127.278 671.494 117.936C671.494 116.91 669.874 116.91 669.874 117.936Z" fill="#E8E8E8"/>
<path d="M631.48 148.338C644.548 148.338 657.616 148.338 670.684 148.338C671.71 148.338 671.71 146.718 670.684 146.718C657.616 146.718 644.548 146.718 631.48 146.718C630.454 146.718 630.454 148.338 631.48 148.338Z" fill="#E8E8E8"/>
<path d="M634.504 121.554C634.504 128.952 634.504 136.296 634.504 143.694C634.504 144.72 636.124 144.72 636.124 143.694C636.124 136.296 636.124 128.952 636.124 121.554C636.124 120.528 634.504 120.528 634.504 121.554Z" fill="#E8E8E8"/>
<path d="M635.692 122.202C645.79 122.202 655.942 122.202 666.04 122.202C667.066 122.202 667.066 120.582 666.04 120.582C655.942 120.582 645.79 120.582 635.692 120.582C634.666 120.582 634.666 122.202 635.692 122.202Z" fill="#E8E8E8"/>
<path d="M665.446 121.554C665.446 128.412 665.446 135.216 665.446 142.074C665.446 143.1 667.066 143.1 667.066 142.074C667.066 135.216 667.066 128.412 667.066 121.554C667.066 120.528 665.446 120.528 665.446 121.554Z" fill="#E8E8E8"/>
<path d="M635.692 144.504C645.736 144.504 655.78 144.504 665.878 144.504C666.904 144.504 666.904 142.884 665.878 142.884C655.834 142.884 645.79 142.884 635.692 142.884C634.666 142.884 634.666 144.504 635.692 144.504Z" fill="#E8E8E8"/>
<path d="M654.808 134.784C650.542 131.544 656.914 124.794 659.884 128.844C662.638 132.516 658.156 136.944 654.322 134.892C653.404 134.406 652.594 135.81 653.512 136.296C655.996 137.646 659.29 137.268 661.072 134.946C662.908 132.624 662.692 128.952 660.37 127.008C657.94 125.01 654.484 126.36 652.81 128.628C651.028 131.112 651.568 134.352 653.998 136.188C654.862 136.782 655.618 135.378 654.808 134.784Z" fill="#E8E8E8"/>
<path d="M649.678 142.776C649.462 138.51 654.7 136.89 657.994 136.89C662.044 136.89 663.34 140.508 665.014 143.586C665.5 144.504 666.904 143.694 666.418 142.776C665.284 140.724 664.204 138.024 662.314 136.512C660.586 135.162 658.426 135.216 656.374 135.432C652.594 135.864 647.788 138.186 648.058 142.776C648.112 143.802 649.732 143.802 649.678 142.776Z" fill="#E8E8E8"/>
<path d="M636.394 138.888C637.582 136.674 641.956 137.538 643.576 138.402C645.25 139.32 646.222 140.832 646.654 142.668C646.87 143.694 648.436 143.262 648.22 142.236C647.572 139.428 645.628 137.214 642.82 136.296C640.444 135.54 636.394 135.486 635.044 138.024C634.504 138.996 635.908 139.806 636.394 138.888Z" fill="#E8E8E8"/>
<path d="M639.526 134.892C637.744 134.838 638.176 132.192 638.932 131.274C639.904 130.086 641.848 129.924 642.982 131.058C643.9 131.922 644.17 133.542 643.414 134.568C642.874 135.324 642.064 135.486 641.2 135.486C640.876 135.486 639.526 135.54 639.31 135.27C638.716 134.406 637.312 135.216 637.906 136.08C638.554 137.052 639.904 137.106 640.984 137.106C642.28 137.16 643.522 136.836 644.44 135.864C646.168 133.974 645.574 130.788 643.522 129.384C641.308 127.926 638.23 128.736 637.096 131.112C636.124 133.218 636.826 136.404 639.526 136.458C640.606 136.566 640.606 134.946 639.526 134.892Z" fill="#E8E8E8"/>
<path d="M309.046 261.738C311.584 263.79 314.716 262.926 317.092 260.928C320.44 258.174 322.114 253.476 322.762 249.318C324.436 238.734 320.17 228.69 318.496 218.43C315.472 199.368 323.788 178.956 339.232 167.508C346.738 161.892 359.104 155.898 356.188 144.396C355.918 143.37 354.352 143.802 354.622 144.828C357.376 155.79 344.632 161.352 337.666 166.644C331.402 171.45 326.326 177.66 322.708 184.626C319.144 191.376 316.984 198.882 316.39 206.496C315.688 215.73 318.118 224.316 320.116 233.226C321.304 238.626 322.06 244.296 321.034 249.804C320.548 252.342 319.684 254.826 318.334 257.04C316.822 259.416 313.204 263.088 310.18 260.658C309.424 259.956 308.236 261.09 309.046 261.738Z" fill="#E8E8E8"/>
<path d="M355.594 143.748C349.492 144.018 344.146 139.266 344.47 133.002C344.794 126.468 352.516 120.42 359.05 122.148C364.882 123.714 369.364 130.14 367.906 136.134C366.448 142.128 359.698 143.424 354.514 144.288C353.488 144.45 353.92 146.016 354.946 145.854C361.642 144.774 369.418 142.398 369.85 134.298C370.174 127.71 364.288 120.582 357.538 120.312C350.41 119.988 343.228 125.82 342.85 133.056C342.526 140.184 348.628 145.692 355.594 145.422C356.62 145.314 356.62 143.694 355.594 143.748Z" fill="#E8E8E8"/>
<path d="M347.602 139.536C350.194 133.002 364.018 131.922 365.638 139.698C365.854 140.724 367.42 140.292 367.204 139.266C365.206 129.762 349.168 131.166 346.036 139.104C345.658 140.076 347.224 140.454 347.602 139.536Z" fill="#E8E8E8"/>
<path d="M355.702 132.246C354.568 131.436 354.136 129.87 354.892 128.682C355.756 127.224 357.592 127.062 358.996 127.818C360.076 128.412 360.292 129.762 359.644 130.788C358.834 132.03 357.106 132.192 355.756 131.868C354.73 131.652 354.298 133.218 355.324 133.434C357.484 133.92 360.076 133.434 361.156 131.328C362.128 129.438 361.426 127.17 359.482 126.252C357.322 125.28 354.73 125.712 353.488 127.818C352.246 129.816 353.056 132.3 354.892 133.596C355.756 134.298 356.566 132.894 355.702 132.246Z" fill="#E8E8E8"/>
<path d="M378.598 115.614C384.268 100.602 400.576 92.934 415.75 91.908C425.794 91.206 435.838 92.772 445.666 94.662C454.954 96.498 464.62 99.414 474.124 99.09C481.954 98.82 490 95.58 493.672 88.29C494.158 87.372 492.754 86.562 492.268 87.48C488.002 95.904 478.174 98.064 469.48 97.362C459.328 96.552 449.338 93.528 439.348 91.854C423.148 89.154 405.868 88.776 391.45 97.902C384.916 102.06 379.732 107.892 376.978 115.182C376.654 116.154 378.22 116.586 378.598 115.614Z" fill="#E8E8E8"/>
<path d="M500.206 87.3719C514.462 87.3719 528.772 87.3719 543.028 87.3719C544.054 87.3719 544.054 85.752 543.028 85.752C528.772 85.752 514.462 85.752 500.206 85.752C499.126 85.752 499.126 87.3719 500.206 87.3719Z" fill="#E8E8E8"/>
<path d="M499.612 85.644C497.074 83.16 499.828 78.948 501.826 77.058C504.256 74.682 507.604 73.764 510.844 75.06C511.114 75.168 511.654 75.006 511.762 74.682C513.706 70.146 518.296 66.852 523.318 67.068C528.556 67.284 532.984 71.226 534.28 76.194C534.388 76.68 535.036 76.95 535.468 76.68C537.844 75.222 540.274 76.95 541.246 79.164C542.11 81.216 541.894 83.538 541.678 85.752C541.57 86.778 543.19 86.778 543.298 85.752C543.622 82.512 543.838 78.678 541.246 76.194C539.41 74.466 536.872 73.926 534.712 75.276C535.09 75.438 535.522 75.6 535.9 75.762C534.442 70.362 529.798 66.042 524.128 65.502C518.296 64.908 512.68 68.526 510.412 73.872C510.736 73.764 511.006 73.602 511.33 73.494C507.01 71.766 502.474 73.602 499.666 77.166C497.56 79.812 495.724 84.078 498.586 86.832C499.234 87.534 500.368 86.4 499.612 85.644Z" fill="#E8E8E8"/>
<path d="M530.338 93.582C536.98 92.826 540.868 99.792 541.894 105.408C542.974 111.186 541.948 116.964 541.354 122.742C540.436 131.436 541.03 141.912 549.292 146.988C550.156 147.528 551.02 146.124 550.102 145.584C538.816 138.672 543.514 123.282 543.946 112.698C544.27 104.652 541.084 90.774 530.338 91.962C529.312 92.07 529.312 93.69 530.338 93.582Z" fill="#E8E8E8"/>
<path d="M558.256 137.862C553.396 150.12 548.59 162.378 543.73 174.582C543.352 175.554 544.918 175.986 545.296 175.014C550.156 162.756 554.962 150.498 559.822 138.294C560.2 137.322 558.634 136.944 558.256 137.862Z" fill="#E8E8E8"/>
<path d="M559.012 138.888C567.436 138.456 575.806 138.672 584.176 139.644C583.906 139.32 583.636 138.942 583.42 138.618C579.424 151.416 576.184 164.376 573.592 177.498C573.376 178.524 574.942 178.956 575.158 177.93C577.75 164.808 581.044 151.848 584.986 139.05C585.148 138.51 584.716 138.078 584.23 138.024C575.86 137.052 567.49 136.836 559.066 137.268C557.986 137.322 557.986 138.942 559.012 138.888Z" fill="#E8E8E8"/>
<path d="M544.108 176.148C549.076 176.364 553.99 176.634 558.958 176.958C563.764 177.228 568.894 177.12 573.43 178.956C574.402 179.334 574.834 177.768 573.862 177.39C569.542 175.608 564.628 175.716 560.038 175.446C554.746 175.122 549.454 174.852 544.108 174.582C543.082 174.474 543.082 176.094 544.108 176.148Z" fill="#E8E8E8"/>
<path d="M559.768 144.288C564.952 144.396 570.136 144.774 575.266 145.476C576.292 145.638 576.724 144.072 575.698 143.91C570.406 143.154 565.114 142.722 559.768 142.614C558.688 142.614 558.688 144.234 559.768 144.288Z" fill="#E8E8E8"/>
<path d="M558.202 147.96C561.118 147.852 564.034 147.906 566.95 148.176C567.976 148.284 567.976 146.664 566.95 146.556C564.034 146.286 561.118 146.178 558.202 146.34C557.176 146.394 557.176 148.014 558.202 147.96Z" fill="#E8E8E8"/>
<path d="M554.638 155.25C560.848 154.872 566.734 154.332 572.836 155.844C573.862 156.114 574.294 154.548 573.268 154.278C567.004 152.766 561.01 153.252 554.638 153.63C553.558 153.684 553.558 155.304 554.638 155.25Z" fill="#E8E8E8"/>
<path d="M554.908 160.002C558.472 159.732 562.036 159.732 565.6 160.056C566.626 160.164 566.626 158.544 565.6 158.436C562.036 158.112 558.472 158.112 554.908 158.382C553.882 158.49 553.828 160.11 554.908 160.002Z" fill="#E8E8E8"/>
<path d="M552.1 166.266C556.96 165.942 561.712 166.104 566.518 166.752C567.544 166.914 567.544 165.294 566.518 165.132C561.712 164.484 556.906 164.322 552.1 164.646C551.074 164.7 551.074 166.32 552.1 166.266Z" fill="#E8E8E8"/>
<path d="M283.396 93.798C285.556 96.714 288.688 97.902 291.874 99.36C295.654 101.088 299.11 103.41 301.918 106.488C308.29 113.346 310.396 122.58 310.558 131.706C310.936 148.824 305.158 166.752 312.934 182.952C313.366 183.87 314.77 183.06 314.338 182.142C306.184 165.078 313.42 145.962 312.016 128.034C311.422 120.258 309.208 112.644 304.186 106.596C301.81 103.734 298.894 101.25 295.654 99.414C292.036 97.362 287.338 96.444 284.8 92.988C284.206 92.178 282.802 92.988 283.396 93.798Z" fill="#E8E8E8"/>
<path d="M264.928 70.9559C263.524 69.1739 263.632 67.9319 265.252 67.2299C265.954 66.8519 266.656 66.5819 267.466 66.4199C268.492 66.2039 269.626 66.1499 270.706 66.2039C273.946 66.3659 277.24 67.2299 277.078 71.1719C276.916 75.8159 276.052 80.4059 274.918 84.8879C273.73 89.4779 272.272 93.9599 270.706 98.4419C270.382 99.4139 270.112 100.548 269.626 101.466C268.654 103.14 267.142 103.086 265.522 103.086C263.524 103.086 260.986 103.356 259.042 102.816C256.882 102.222 256.396 100.062 258.502 98.6579C259.474 98.0099 260.824 97.9019 261.958 97.9019C263.416 97.9019 264.712 98.2259 265.954 97.2539C268.33 95.4179 268.708 90.4499 269.248 87.8039C270.058 83.9699 271.408 79.2719 271.138 75.3839C270.922 72.4139 268.006 72.3059 265.9 71.0639C264.982 70.5239 264.172 71.9279 265.09 72.4679C266.764 73.4399 269.194 73.5479 269.518 75.7619C269.896 78.3539 268.816 81.8639 268.33 84.4559C267.844 86.9399 267.304 89.4239 266.656 91.8539C266.17 93.6899 265.954 95.9039 263.524 96.3899C262.552 96.6059 261.364 96.2819 260.338 96.4439C257.746 96.8219 255.208 98.6579 255.586 101.574C256.072 105.246 260.446 104.598 263.146 104.706C266.494 104.814 269.842 105.3 271.354 101.736C273.244 97.3079 274.594 92.4479 275.89 87.8579C277.24 83.1059 278.266 78.1919 278.644 73.2779C278.968 69.4439 279.13 66.3659 274.864 65.3399C271.138 64.4219 266.008 63.9899 263.092 67.0139C261.148 69.0119 261.634 72.9539 264.982 72.6839C265.954 72.4679 265.954 70.8479 264.928 70.9559Z" fill="#E8E8E8"/>
<path d="M258.394 76.734C258.34 76.68 258.286 76.626 258.232 76.572C258.016 76.356 257.692 76.302 257.422 76.356C255.856 76.896 255.262 79.434 254.83 80.838C254.074 83.43 253.912 86.076 254.29 88.776C254.398 89.802 256.018 89.802 255.91 88.776C255.694 86.886 255.64 85.05 255.964 83.16C256.126 82.188 257.8 78.408 257.206 77.868C257.962 78.624 259.096 77.49 258.394 76.734Z" fill="#E8E8E8"/>
<path d="M252.94 70.7939C247.972 77.1119 244.786 84.7259 246.892 92.8259C247.162 93.8519 248.728 93.4199 248.458 92.3939C246.514 84.9419 249.538 77.7599 254.074 71.9279C254.722 71.1179 253.588 69.9839 252.94 70.7939Z" fill="#E8E8E8"/>
<path d="M246.136 63.504C237.874 74.358 233.986 88.074 235.39 101.682C235.498 102.708 237.118 102.708 237.01 101.682C235.66 88.344 239.386 75.006 247.54 64.314C248.134 63.504 246.73 62.694 246.136 63.504Z" fill="#E8E8E8"/>
<path d="M234.634 118.692C230.476 120.69 226.588 123.444 223.51 126.9C220.378 130.464 219.406 134.298 218.92 138.942C217.84 149.58 213.898 161.244 203.206 165.726C202.234 166.104 202.666 167.67 203.638 167.292C212.17 163.728 217.138 155.628 219.244 146.88C220.486 141.642 219.892 135.432 222.646 130.734C225.454 125.928 230.53 122.418 235.444 120.042C236.416 119.664 235.606 118.26 234.634 118.692Z" fill="#E8E8E8"/>
<path d="M180.364 194.4C176.8 194.508 172.75 192.996 171.454 189.324C169.942 185.004 173.182 180.792 176.638 178.578C183.334 174.258 192.352 172.584 200.128 172.476C204.07 172.422 208.552 172.476 212.008 174.582C216.436 177.282 217.192 182.358 213.736 186.192C208.498 192.024 199.48 192.618 192.244 193.158C191.218 193.212 191.218 194.832 192.244 194.778C199.48 194.238 207.58 193.59 213.412 188.73C218.758 184.302 219.136 176.958 212.872 173.124C206.392 169.182 196.51 170.478 189.49 171.99C182.74 173.448 173.506 176.094 170.482 183.06C167.35 190.188 173.344 196.128 180.472 195.912C181.444 195.966 181.444 194.346 180.364 194.4Z" fill="#E8E8E8"/>
<path d="M180.094 195.048C178.744 197.208 177.448 199.368 176.098 201.474C175.666 202.176 176.53 202.932 177.232 202.608C180.526 200.826 184.09 199.692 187.438 198.126C189.274 197.316 191.056 196.344 192.784 195.264C193.378 194.886 194.08 194.67 194.242 193.914C194.35 193.536 194.134 192.996 193.702 192.942C193.648 192.942 193.594 192.942 193.54 192.888C193.162 192.834 192.622 192.996 192.568 193.428C192.568 193.482 192.568 193.482 192.568 193.536C192.352 194.562 193.918 194.994 194.134 193.968C194.134 193.914 194.134 193.914 194.134 193.86C193.81 194.022 193.486 194.238 193.162 194.4C193.216 194.4 193.27 194.4 193.324 194.454C193.162 194.13 192.946 193.806 192.784 193.482C192.622 194.022 189.598 195.264 188.95 195.642C187.33 196.506 185.656 197.208 183.928 197.91C181.39 198.936 178.906 199.908 176.53 201.204C176.908 201.582 177.286 201.96 177.664 202.338C179.014 200.178 180.31 198.018 181.66 195.912C182.038 194.994 180.634 194.184 180.094 195.048Z" fill="#E8E8E8"/>
<path d="M181.876 185.706C181.822 185.598 181.822 185.382 181.984 185.382C182.416 185.382 181.93 185.922 181.876 185.976C181.606 186.138 180.688 186.354 180.742 185.814C180.796 185.166 182.038 184.464 182.254 185.436C182.308 185.706 182.092 186.03 181.822 186.084C181.66 186.138 181.552 186.138 181.444 186.03C181.39 185.976 181.282 185.922 181.39 185.922C182.416 185.976 182.416 184.356 181.39 184.302C180.31 184.194 179.5 185.328 179.77 186.354C180.04 187.38 181.228 187.92 182.2 187.65C183.172 187.38 183.928 186.516 183.928 185.49C183.928 184.464 183.118 183.6 182.2 183.384C180.202 182.898 178.096 185.814 179.824 187.272C181.228 188.46 184.036 187.38 183.874 185.382C183.766 184.302 182.578 183.438 181.498 183.816C180.418 184.194 179.986 185.544 180.526 186.516C180.958 187.434 182.362 186.624 181.876 185.706Z" fill="#E8E8E8"/>
<path d="M193.81 184.248C193.756 183.924 193.594 183.492 193.918 183.222C194.08 183.06 194.35 183.06 194.566 183.06C195.106 183.168 194.998 183.762 194.62 184.032C194.404 184.194 194.188 184.194 194.026 183.978C193.864 183.762 193.918 183.708 194.08 183.6C194.188 183.546 193.864 183.6 194.134 183.546C194.782 183.438 193.702 184.194 193.864 183.654C193.54 184.68 195.106 185.058 195.43 184.086C195.7 183.114 194.782 182.142 193.81 182.304C192.676 182.52 192.406 183.87 193.108 184.68C193.756 185.436 194.944 185.274 195.43 184.41C195.916 183.546 195.592 182.412 194.62 182.088C193.648 181.764 192.568 182.358 192.352 183.33C192.082 184.41 192.838 185.49 193.918 185.76C195.862 186.192 197.482 183.546 196.078 182.088C195.376 181.386 194.242 181.332 193.378 181.71C192.19 182.304 192.136 183.546 192.352 184.68C192.406 185.706 193.972 185.274 193.81 184.248Z" fill="#E8E8E8"/>
<path d="M205.798 180.63C206.014 180.63 206.23 180.684 206.5 180.684V180.63C206.554 180.576 206.554 180.468 206.608 180.414C206.662 180.306 206.824 180.198 206.932 180.144C207.202 180.036 207.472 180.036 207.634 180.306C207.85 180.738 207.472 181.548 206.932 181.224C206.608 181.008 206.554 180.468 207.04 180.576C207.148 180.576 207.202 180.63 207.256 180.684C207.256 180.684 207.256 180.792 207.256 180.684C207.256 180.576 207.256 180.738 207.202 180.738C207.04 180.846 206.986 180.954 206.824 180.846C206.446 180.576 205.906 180.792 205.69 181.116C205.474 181.548 205.636 181.98 205.96 182.25C207.526 183.384 209.632 181.116 208.39 179.604C207.256 178.254 204.826 179.118 204.934 180.9C204.988 181.818 205.69 182.628 206.554 182.844C207.418 183.06 208.336 182.628 208.822 181.872C209.902 180.198 208.39 177.876 206.392 178.524C205.474 178.848 204.664 179.766 204.772 180.792C204.88 181.926 206.5 182.52 207.094 181.386C207.634 180.522 206.284 179.712 205.798 180.63Z" fill="#E8E8E8"/>
<path d="M238.414 133.542C245.056 129.87 250.834 125.01 255.64 119.124C256.288 118.314 255.154 117.18 254.506 117.99C249.808 123.768 244.138 128.52 237.604 132.138C236.686 132.624 237.496 134.028 238.414 133.542Z" fill="#E8E8E8"/>
<path d="M319.198 134.946C318.01 141.75 317.524 148.608 317.848 155.52C317.902 156.546 319.522 156.546 319.468 155.52C319.144 148.77 319.576 142.02 320.764 135.378C320.926 134.352 319.36 133.92 319.198 134.946Z" fill="#E8E8E8"/>
<path d="M310.936 292.788C310.936 284.526 314.824 276.696 321.466 271.728C322.276 271.134 321.466 269.73 320.656 270.324C313.528 275.616 309.37 283.878 309.37 292.788C309.316 293.814 310.936 293.814 310.936 292.788Z" fill="#E8E8E8"/>
<path d="M401.386 510.84C402.25 518.616 403.6 527.148 405.76 536.382C408.676 548.856 412.402 559.764 416.128 568.944C415.102 569.862 412.024 572.292 407.488 572.616C404.626 572.832 402.358 572.13 401.062 571.644C399.118 564.894 397.228 557.874 395.5 550.584C391.936 535.572 389.344 521.262 387.454 507.924C392.152 508.896 396.796 509.868 401.386 510.84Z" fill="#191919"/>
<path d="M522.616 505.764C521.914 513.486 520.726 522.072 518.728 531.306C515.92 544.374 512.194 555.714 508.414 565.272C508.954 565.758 512.032 568.674 516.784 568.458C520.888 568.296 523.534 565.866 524.182 565.272C525.424 558.738 526.612 552.15 527.8 545.562C530.392 531.144 532.714 516.942 534.928 502.902C530.824 503.82 526.72 504.792 522.616 505.764Z" fill="#191919"/>
<path d="M426.064 484.218C427.306 492.48 428.764 501.012 430.438 509.76C432.868 522.45 435.622 534.546 438.538 545.994C437.296 546.75 434.812 547.992 431.41 548.208C428.548 548.37 426.28 547.722 424.984 547.236C423.364 539.568 421.798 531.792 420.232 524.016C417.37 509.598 414.724 495.396 412.186 481.356C416.83 482.274 421.42 483.246 426.064 484.218Z" fill="#191919"/>
<path d="M502.258 482.598C500.8 490.752 499.504 499.284 498.37 508.14C496.804 520.344 495.724 532.008 495.076 543.132C495.994 543.726 498.154 544.968 501.232 545.13C504.526 545.238 506.956 543.942 507.874 543.402C507.334 537.03 507.118 529.956 507.442 522.396C508.09 505.602 511.168 491.13 514.57 479.736C510.466 480.654 506.362 481.626 502.258 482.598Z" fill="#191919"/>
<path d="M598.216 301.914C607.666 318.762 600.376 337.392 582.664 383.67C574.132 405.918 558.526 446.796 536.494 505.062C514.84 512.946 478.984 522.666 434.65 519.588C408.892 517.806 387.292 512.244 370.93 506.52C368.5 502.146 360.076 485.784 366.394 469.908C369.904 461.106 376.978 454.788 391.99 447.336C406.786 439.992 432.868 429.678 470.776 427.788C455.926 353.862 481.36 293.274 520.942 279.288C546.916 270.162 585.202 278.748 598.216 301.914Z" fill="white" stroke="#191919" stroke-width="2" stroke-miterlimit="10"/>
<path d="M594.76 308.016C579.1 327.834 575.536 354.456 569.542 378.27C563.116 403.758 555.718 429.192 544.648 453.114C538.546 466.236 531.364 478.872 522.778 490.536C522.184 491.4 523.588 492.21 524.182 491.346C539.248 470.826 549.886 447.552 558.094 423.576C566.41 399.168 571.918 374.004 578.398 349.11C582.07 334.962 586.768 320.814 595.948 309.204C596.542 308.34 595.408 307.206 594.76 308.016Z" fill="#191919"/>
<path d="M371.254 494.802C407.272 508.032 446.53 511.92 484.438 506.034C495.292 504.36 506.038 501.876 516.568 498.636C517.54 498.312 517.162 496.746 516.136 497.07C479.416 508.41 439.996 510.138 402.412 502.146C391.99 499.932 381.676 496.908 371.686 493.236C370.714 492.858 370.282 494.424 371.254 494.802Z" fill="#191919"/>
<path d="M498.046 452.358C507.118 455.328 514.84 461.322 520.024 469.422C520.564 470.286 521.968 469.476 521.428 468.612C516.028 460.188 507.982 453.924 498.478 450.792C497.452 450.468 497.02 452.034 498.046 452.358Z" fill="#191919"/>
<path d="M335.614 522.288C339.934 528.768 344.254 535.302 348.52 541.782C320.872 566.622 317.308 573.696 319.36 575.424C323.464 578.826 352.894 563.706 355.918 562.14C366.88 556.524 375.142 551.07 380.65 547.182C378.706 541.89 376.114 535.95 372.55 529.686C367.852 521.424 362.668 514.458 357.754 508.788C350.356 513.216 342.958 517.752 335.614 522.288Z" fill="#191919"/>
<path d="M497.182 395.01C499.126 399.222 501.178 405.216 501.502 412.452C501.988 423.36 498.424 432.054 495.724 437.076C494.266 438.966 491.674 442.098 487.84 445.5C487.84 445.5 479.146 453.168 465.322 459.054C451.228 465.102 410.242 472.392 354.568 473.796C356.188 480.708 359.104 489.186 364.288 498.312C367.15 503.334 370.282 507.762 373.36 511.596C371.308 514.296 365.476 521.154 353.866 525.474C342.688 529.632 332.428 529.146 328.378 528.822C322.546 523.476 316.552 517.104 310.99 509.49C294.628 486.972 290.794 465.21 290.092 451.224C294.142 448.308 300.082 444.312 307.858 440.046C324.058 431.136 338.908 426.276 351.112 422.658C372.118 416.502 392.206 412.236 438.43 404.406C452.902 401.976 472.936 398.628 497.182 395.01Z" fill="white" stroke="#191919" stroke-width="2" stroke-miterlimit="10"/>
<path opacity="0.19" d="M445.882 404.298C444.316 414.612 439.888 428.004 426.172 436.32C412.834 444.42 401.656 441.126 374.926 447.606C355.702 452.25 330.268 458.406 323.194 472.068C315.796 486.432 329.782 506.682 354.244 523.314C356.296 523.044 358.888 522.504 361.642 521.424C368.716 518.616 372.172 514.026 373.468 512.028C370.336 508.248 367.096 503.874 364.126 498.852C358.51 489.456 355.486 480.708 353.758 473.634C382.378 472.446 406.408 469.962 424.66 467.586C446.638 464.724 461.866 461.862 476.392 453.654C488.542 446.796 493.402 440.046 495.13 437.454C500.368 429.516 500.8 422.28 501.016 418.23C501.556 408.348 498.316 400.302 495.616 395.226C479.038 398.25 462.46 401.274 445.882 404.298Z" fill="#6C6D6D"/>
<path opacity="0.19" d="M496.156 396.36C495.076 406.404 491.242 422.28 475.96 434.808C466.564 442.53 456.466 445.986 416.83 456.678C399.334 461.376 378.166 466.938 354.082 472.986C384.7 472.662 409.594 470.124 427.468 467.694C445.99 465.156 455.062 462.942 464.458 458.892C473.368 455.058 491.35 447.282 498.694 430.92C505.768 415.044 498.64 400.788 496.156 396.36Z" fill="#6C6D6D"/>
<path opacity="0.22" d="M354.244 473.796C354.028 480.924 354.352 489.078 355.702 498.042C356.998 506.898 359.104 514.836 361.372 521.748C363.208 520.668 365.314 519.21 367.366 517.428C369.85 515.268 371.686 513.216 373.036 511.434C369.904 507.33 366.718 502.578 363.748 497.232C358.942 488.592 356.08 480.6 354.244 473.796Z" fill="#6C6D6D"/>
<path d="M351.76 553.284C355.918 561.438 360.022 569.592 364.18 577.8C337.612 609.012 334.156 617.868 336.154 620.028C340.096 624.348 368.392 605.286 371.308 603.342C381.838 596.268 389.83 589.41 395.122 584.55C393.232 577.908 390.748 570.456 387.292 562.518C382.81 552.15 377.788 543.402 373.09 536.22C365.962 541.944 358.834 547.614 351.76 553.284Z" fill="#191919"/>
<path d="M507.064 393.336C508.954 398.682 510.898 406.134 511.222 415.26C511.708 428.976 508.252 439.884 505.66 446.202C504.256 448.578 501.772 452.52 498.1 456.84C498.1 456.84 489.784 466.506 476.5 473.904C462.946 481.464 423.526 490.698 370.066 492.426C371.632 501.12 374.386 511.758 379.408 523.206C382.162 529.524 385.186 535.086 388.156 539.892C386.212 543.294 380.596 551.88 369.418 557.334C358.672 562.572 348.844 561.978 344.902 561.492C339.286 554.796 333.508 546.75 328.216 537.192C312.448 508.896 308.776 481.518 308.128 463.968C312.016 460.35 317.74 455.274 325.192 449.928C340.798 438.75 355 432.594 366.772 428.058C386.914 420.336 406.3 414.99 450.742 405.108C464.458 402.03 483.79 397.872 507.064 393.336Z" fill="white" stroke="#191919" stroke-width="2" stroke-miterlimit="10"/>
<path opacity="0.19" d="M457.762 405C456.25 417.96 451.984 434.754 438.808 445.23C426.01 455.436 415.21 451.278 389.56 459.432C371.092 465.264 346.63 473.04 339.826 490.212C332.698 508.248 346.144 533.736 369.634 554.58C371.632 554.256 374.116 553.554 376.762 552.204C383.566 548.694 386.86 542.916 388.102 540.378C385.078 535.626 381.946 530.118 379.084 523.8C373.684 511.974 370.768 501.012 369.148 492.102C396.688 490.59 419.746 487.512 437.35 484.542C458.518 480.978 473.098 477.36 487.084 467.046C498.748 458.406 503.446 449.928 505.066 446.688C510.088 436.698 510.52 427.626 510.736 422.55C511.222 410.13 508.144 400.032 505.552 393.66C489.622 397.386 473.692 401.166 457.762 405Z" fill="#6C6D6D"/>
<path opacity="0.19" d="M506.038 395.01C505.012 407.592 501.34 427.572 486.652 443.34C477.58 453.06 467.914 457.38 429.844 470.826C412.996 476.766 392.692 483.732 369.526 491.346C398.956 490.914 422.932 487.782 440.104 484.704C457.924 481.518 466.672 478.764 475.636 473.688C484.222 468.828 501.448 459.108 508.576 438.48C515.326 418.5 508.468 400.626 506.038 395.01Z" fill="#6C6D6D"/>
<path opacity="0.22" d="M369.688 492.372C369.472 501.336 369.796 511.596 371.092 522.828C372.388 534.006 374.332 543.942 376.546 552.582C378.328 551.178 380.326 549.396 382.324 547.128C384.7 544.428 386.482 541.836 387.778 539.622C384.754 534.438 381.676 528.498 378.868 521.748C374.224 510.948 371.416 500.85 369.688 492.372Z" fill="#6C6D6D"/>
<path d="M348.682 309.42C347.656 308.934 345.604 308.016 345.658 306.99C345.766 305.316 351.328 304.182 355.486 304.236C358.294 304.236 363.478 304.83 369.526 309.042C363.856 310.824 355.486 312.444 348.682 309.42Z" fill="white" stroke="#191919" stroke-width="2" stroke-miterlimit="10"/>
<path d="M478.552 239.382C468.292 238.032 459.058 253.422 458.194 254.826C455.062 260.172 454.684 263.736 452.524 273.51C447.286 297.324 444.478 309.42 436.702 316.71C429.682 323.244 421.474 324.81 419.314 325.134C410.08 326.592 401.71 323.136 385.402 316.17C371.632 310.284 369.958 308.124 362.452 307.26C358.618 306.828 347.44 305.586 340.042 312.768C335.29 317.358 333.184 324.702 334.912 326.214C337.126 328.158 346.198 321.3 346.306 321.462C346.36 321.57 343.606 322.866 341.338 325.674C340.204 327.024 338.26 329.94 338.962 330.696C340.204 332.208 347.818 323.028 356.188 324.648C361.912 325.728 362.992 330.912 369.634 331.884C373.522 332.478 376.924 331.29 379.084 330.264C382.864 334.368 389.02 340.2 397.93 344.952C403.222 347.76 421.906 357.426 444.748 351.81C468.994 345.87 481.198 326.916 485.032 320.976C487.192 317.574 503.068 292.194 495.4 263.736C494.05 259.146 489.136 240.786 478.552 239.382Z" fill="white" stroke="#191919" stroke-width="2" stroke-miterlimit="10"/>
<path opacity="0.25" d="M477.472 239.544C473.962 241.38 480.766 254.124 479.902 272.376C479.092 289.926 471.586 302.886 468.238 308.826C463.702 316.764 457.708 327.132 445.774 333.882C429.736 342.954 409.864 341.604 395.716 335.448C391.504 333.612 387.238 327.672 377.95 324.054C373.9 322.488 370.714 321.84 366.988 321.084C357.862 319.302 349.762 317.682 342.256 321.462C338.692 323.298 335.722 326.106 335.938 326.484C336.154 326.862 340.312 324.756 343.984 322.758C339.556 328.644 338.854 330.318 339.178 330.642C339.556 330.966 340.906 329.724 344.362 327.78C348.088 325.728 350.788 324.27 354.082 324.54C355.756 324.702 357.052 325.242 357.808 325.566C360.778 326.862 361.48 328.374 364.45 329.886C366.286 330.804 367.798 331.182 368.608 331.344C370.336 331.722 373.9 332.208 378.598 330.534C382.702 334.854 401.548 353.97 429.142 353.592C443.344 353.376 453.766 348.084 457.87 345.978C480.388 334.26 489.352 313.47 491.62 307.746C498.64 290.034 501.124 263.79 488.272 247.32C485.194 243.324 479.902 238.302 477.472 239.544Z" fill="#6C6D6D"/>
<path d="M335.884 326.214C337.99 323.082 340.744 320.598 344.038 318.816C344.74 318.438 344.092 317.412 343.444 317.79C339.988 319.68 337.072 322.326 334.858 325.62C334.372 326.268 335.452 326.862 335.884 326.214Z" fill="#191919"/>
<path d="M336.532 319.248C338.638 315.954 342.04 314.226 345.442 312.552C346.144 312.228 345.55 311.148 344.848 311.526C341.23 313.254 337.666 315.144 335.452 318.654C335.074 319.302 336.1 319.896 336.532 319.248Z" fill="#191919"/>
<path opacity="0.29" d="M492.97 258.984C492.16 264.438 490.702 272.322 488.11 281.61C483.034 299.97 478.444 316.494 466.456 329.616C451.606 345.816 431.464 350.244 419.908 351.594C428.494 353.592 435.244 353.214 439.51 352.62C471.91 348.084 489.406 313.254 494.158 298.026C494.968 295.326 496.696 289.764 496.912 282.15C497.29 271.998 494.806 263.844 492.97 258.984Z" fill="#6C6D6D"/>
<path opacity="0.26" d="M357.268 324C360.346 325.512 364.558 327.186 369.742 328.158C373.846 328.914 377.518 329.076 380.434 328.968C373.036 332.91 369.202 332.424 367.042 331.128C365.692 330.318 364.18 328.698 360.022 325.836C358.888 325.026 357.916 324.378 357.268 324Z" fill="#6C6D6D"/>
<path d="M248.08 412.776C248.08 438.696 248.08 464.67 248.08 490.59C248.08 493.722 252.94 493.722 252.94 490.59C252.94 464.67 252.94 438.696 252.94 412.776C252.94 409.698 248.08 409.644 248.08 412.776Z" fill="#161616"/>
<path d="M336.424 411.75C336.424 415.908 336.424 420.066 336.424 424.224C336.424 427.356 341.284 427.356 341.284 424.224C341.284 420.066 341.284 415.908 341.284 411.75C341.284 408.618 336.424 408.618 336.424 411.75Z" fill="#161616"/>
<path d="M181.012 409.59C207.202 384.912 233.392 360.18 259.636 335.502C302.026 336.258 344.362 337.014 386.752 337.77C379.84 361.746 372.928 385.668 366.016 409.644C304.348 409.59 242.68 409.59 181.012 409.59Z" fill="white" stroke="#191919" stroke-width="2" stroke-miterlimit="10"/>
<path d="M182.578 412.398C229.936 412.398 277.24 412.398 324.598 412.398C337.882 412.398 351.112 412.398 364.396 412.398C367.528 412.398 367.528 407.538 364.396 407.538C317.038 407.538 269.734 407.538 222.376 407.538C209.092 407.538 195.862 407.538 182.578 407.538C179.446 407.538 179.446 412.398 182.578 412.398Z" fill="#161616"/>
<path d="M196.456 411.588C196.456 465.318 196.456 519.048 196.456 572.724C196.456 587.79 196.456 602.802 196.456 617.868C196.456 621 201.316 621 201.316 617.868C201.316 564.138 201.316 510.408 201.316 456.732C201.316 441.666 201.316 426.654 201.316 411.588C201.316 408.456 196.456 408.456 196.456 411.588Z" fill="#161616"/>
<path d="M344.578 411.588C344.578 465.318 344.578 519.048 344.578 572.724C344.578 587.79 344.578 602.802 344.578 617.868C344.578 621 349.438 621 349.438 617.868C349.438 564.138 349.438 510.408 349.438 456.732C349.438 441.666 349.438 426.654 349.438 411.588C349.438 408.456 344.578 408.456 344.578 411.588Z" fill="#161616"/>
<path d="M198.886 511.866C237.01 511.866 275.134 511.866 313.258 511.866C324.058 511.866 334.858 511.866 345.658 511.866C348.79 511.866 348.79 507.006 345.658 507.006C307.534 507.006 269.41 507.006 231.286 507.006C220.486 507.006 209.686 507.006 198.886 507.006C195.754 507.006 195.754 511.866 198.886 511.866Z" fill="#161616"/>
<path d="M386.104 337.77C379.948 361.8 372.874 385.614 364.774 409.05C364.072 411.048 367.204 411.858 367.906 409.914C376.006 386.424 383.08 362.664 389.236 338.634C389.722 336.636 386.644 335.772 386.104 337.77Z" fill="#161616"/>
<path d="M127.552 623.16C156.226 623.16 184.846 623.16 213.52 623.16C216.652 623.16 216.652 618.3 213.52 618.3C184.846 618.3 156.226 618.3 127.552 618.3C124.42 618.3 124.42 623.16 127.552 623.16Z" fill="#161616"/>
<path d="M225.562 622.08C232.15 622.08 238.792 622.08 245.38 622.08C248.512 622.08 248.512 617.22 245.38 617.22C238.792 617.22 232.15 617.22 225.562 617.22C222.43 617.22 222.43 622.08 225.562 622.08Z" fill="#161616"/>
<path d="M311.53 622.782C337.342 622.782 363.154 622.782 389.02 622.782C392.152 622.782 392.152 617.922 389.02 617.922C363.208 617.922 337.396 617.922 311.53 617.922C308.398 617.922 308.398 622.782 311.53 622.782Z" fill="#161616"/>
<path d="M406.678 621.054C411.268 621.054 415.858 621.054 420.502 621.054C423.634 621.054 423.634 616.194 420.502 616.194C415.912 616.194 411.322 616.194 406.678 616.194C403.546 616.194 403.546 621.054 406.678 621.054Z" fill="#161616"/>
<path d="M101.524 606.042C112.702 606.042 123.88 606.042 135.004 606.042C138.136 606.042 138.136 601.182 135.004 601.182C123.826 601.182 112.648 601.182 101.524 601.182C98.392 601.182 98.392 606.042 101.524 606.042Z" fill="#161616"/>
<path d="M337.72 399.384C304.402 398.52 271.03 397.71 237.712 396.846C257.476 377.946 277.186 358.992 296.95 340.092C319.738 341.28 342.58 342.468 365.368 343.656C356.134 362.286 346.954 380.808 337.72 399.384Z" fill="white" stroke="#191919" stroke-width="2" stroke-miterlimit="10"/>
<path d="M295.816 339.714C276.43 358.452 257.044 377.244 237.658 395.982C236.794 365.958 235.876 335.88 235.012 305.856C254.668 293.436 274.324 281.016 293.98 268.596C294.52 292.302 295.168 316.008 295.816 339.714Z" fill="white" stroke="#191919" stroke-width="2" stroke-miterlimit="10"/>
<path d="M236.794 308.718C238.36 335.448 239.386 362.232 239.926 389.016C239.926 389.556 240.736 389.556 240.736 389.016C240.196 362.232 239.17 335.448 237.604 308.718C237.55 308.232 236.74 308.232 236.794 308.718Z" fill="#191919"/>
<path d="M237.226 308.826C255.316 297.054 273.406 285.282 291.496 273.51C291.928 273.24 291.55 272.538 291.064 272.808C272.974 284.58 254.884 296.352 236.794 308.124C236.362 308.448 236.74 309.15 237.226 308.826Z" fill="#191919"/>
<path d="M291.28 273.456C291.226 295.002 291.874 316.602 293.278 338.094C293.332 338.634 294.142 338.634 294.088 338.094C292.738 316.548 292.036 295.002 292.09 273.456C292.09 272.97 291.28 272.97 291.28 273.456Z" fill="#191919"/>
<path d="M240.466 390.15C258.178 373.032 275.944 355.914 293.656 338.85C294.034 338.472 293.44 337.932 293.062 338.256C275.35 355.374 257.584 372.492 239.872 389.556C239.548 389.934 240.088 390.528 240.466 390.15Z" fill="#191919"/>
<path d="M322.492 380.97C325.786 375.732 329.08 370.44 332.266 365.094C332.536 364.662 331.834 364.23 331.564 364.662C328.378 370.008 325.084 375.3 321.79 380.538C321.466 380.97 322.168 381.402 322.492 380.97Z" fill="#191919"/>
<path d="M332.05 364.932C336.316 365.094 340.582 365.094 344.848 364.878C345.388 364.878 345.388 364.068 344.848 364.068C340.582 364.23 336.316 364.23 332.05 364.122C331.51 364.122 331.51 364.932 332.05 364.932Z" fill="#191919"/>
<path d="M344.308 364.662C341.878 369.954 339.394 375.246 336.91 380.538C336.694 381.024 337.396 381.402 337.612 380.97C340.096 375.678 342.58 370.386 345.01 365.094C345.226 364.554 344.524 364.176 344.308 364.662Z" fill="#191919"/>
<path d="M322.222 381.402C326.974 382.104 331.996 381.78 336.802 381.564C337.342 381.564 337.342 380.754 336.802 380.754C332.104 380.97 327.136 381.294 322.438 380.646C321.898 380.538 321.682 381.348 322.222 381.402Z" fill="#191919"/>
<path d="M339.934 364.716C337.774 370.116 335.29 375.354 332.482 380.43C332.212 380.862 332.914 381.294 333.184 380.862C335.992 375.678 338.53 370.386 340.744 364.932C340.906 364.446 340.15 364.23 339.934 364.716Z" fill="#191919"/>
<path d="M261.688 389.178C273.568 374.49 285.88 360.126 298.57 346.086C298.894 345.708 298.354 345.114 297.976 345.492C285.286 359.478 272.974 373.842 261.094 388.584C260.77 389.016 261.364 389.556 261.688 389.178Z" fill="#191919"/>
<path d="M276.052 390.096C286.69 375.246 297.922 360.882 309.694 346.95C310.018 346.572 309.478 345.978 309.1 346.356C297.274 360.342 286.042 374.76 275.35 389.664C275.026 390.096 275.728 390.528 276.052 390.096Z" fill="#191919"/>
<path d="M291.496 392.31C300.73 376.866 310.828 361.962 321.736 347.652C322.06 347.22 321.358 346.842 321.034 347.22C310.126 361.53 300.028 376.434 290.794 391.878C290.524 392.31 291.226 392.742 291.496 392.31Z" fill="#191919"/>
<path d="M304.456 393.66C313.528 376.758 324.274 360.828 336.586 346.14C336.91 345.762 336.37 345.168 335.992 345.546C323.626 360.288 312.826 376.272 303.7 393.228C303.484 393.714 304.186 394.146 304.456 393.66Z" fill="#191919"/>
<path d="M268.6 380.43C282.424 378.972 296.248 380.7 310.018 382.536C310.558 382.59 310.504 381.78 310.018 381.726C296.302 379.89 282.478 378.108 268.6 379.62C268.114 379.674 268.114 380.484 268.6 380.43Z" fill="#191919"/>
<path d="M275.566 372.546C288.634 372.06 301.702 373.032 314.554 375.516C315.04 375.624 315.256 374.814 314.77 374.76C301.864 372.276 288.688 371.304 275.566 371.79C275.08 371.736 275.08 372.546 275.566 372.546Z" fill="#191919"/>
<path d="M281.83 364.932C294.412 364.122 306.994 365.256 319.252 368.28C319.738 368.388 319.954 367.632 319.468 367.524C307.156 364.446 294.52 363.312 281.83 364.122C281.29 364.176 281.29 364.986 281.83 364.932Z" fill="#191919"/>
<path d="M288.31 357.318C300.406 357.372 312.394 358.614 324.22 361.044C324.706 361.152 324.922 360.342 324.436 360.288C312.556 357.858 300.46 356.616 288.31 356.562C287.824 356.508 287.824 357.318 288.31 357.318Z" fill="#191919"/>
<path d="M294.736 350.244C306.238 350.46 317.686 351.81 328.864 354.348C329.35 354.456 329.566 353.7 329.08 353.592C317.794 351.054 306.292 349.65 294.736 349.488C294.196 349.434 294.196 350.244 294.736 350.244Z" fill="#191919"/>
<path d="M331.78 358.452C326.488 366.228 321.25 374.004 315.958 381.78C315.688 382.212 316.39 382.644 316.66 382.212C321.952 374.436 327.19 366.66 332.482 358.884C332.806 358.398 332.104 358.02 331.78 358.452Z" fill="#191919"/>
<path d="M242.356 346.68C249.106 343.818 256.396 345.438 263.524 345.33C269.518 345.276 275.242 343.602 280.372 340.578C280.804 340.308 280.426 339.606 279.94 339.876C273.622 343.602 266.926 344.79 259.69 344.466C253.642 344.196 247.648 343.602 241.924 346.032C241.492 346.194 241.87 346.896 242.356 346.68Z" fill="#191919"/>
<path d="M260.554 343.332C272.11 336.798 277.456 323.028 289.498 317.25C289.984 317.034 289.552 316.332 289.066 316.548C276.97 322.38 271.678 336.096 260.122 342.63C259.69 342.9 260.068 343.602 260.554 343.332Z" fill="#191919"/>
<path d="M275.242 304.83C273.244 303.264 273.568 300.726 274.702 298.728C275.242 297.756 276.052 296.73 276.97 296.136C278.644 295.056 280.21 295.92 281.506 297.054C281.884 297.378 282.478 296.838 282.1 296.46C279.4 294.192 276.862 294.408 274.648 297.324C272.866 299.7 271.948 303.264 274.648 305.424C275.08 305.748 275.674 305.154 275.242 304.83Z" fill="#191919"/>
<path d="M441.562 265.356C426.766 281.772 422.77 299.808 420.61 310.014C416.668 328.914 420.826 336.474 421.096 372.384C421.204 387.666 420.556 400.032 420.07 407.808C423.418 410.4 444.154 425.844 471.856 420.768C492.376 417.042 504.742 404.19 508.63 399.816C509.548 394.686 510.844 387.126 512.356 377.946C520.348 328.428 524.29 303.318 519.322 285.336C516.352 274.428 509.008 257.148 488.164 239.274C479.416 241.11 458.41 246.726 441.562 265.356Z" fill="#9B9B9B"/>
<path opacity="0.19" d="M456.628 255.42C461.758 270.756 464.512 283.878 466.132 293.49C470.398 318.924 476.824 357.048 458.734 393.984C452.956 405.756 446.206 414.396 441.454 419.742C447.718 421.2 460.138 423.198 474.934 419.364C492.538 414.828 503.554 404.622 508.09 399.978C511.6 379.89 514.408 362.664 516.568 349.218C520.294 325.566 521.158 318.384 520.78 308.286C520.348 295.326 519.754 281.718 511.978 267.03C504.526 252.99 494.05 244.566 487.624 240.246C482.386 241.164 474.988 243.108 467.158 247.644C462.838 250.236 459.328 252.99 456.628 255.42Z" fill="#6C6D6D"/>
<path opacity="0.18" d="M517.972 281.178C517 281.232 519.052 296.19 515.866 316.818C509.98 354.996 491.08 381.456 483.79 390.852C477.688 398.682 468.13 409.482 454.144 420.12C459.166 420.876 465.862 421.2 473.53 419.742C491.728 416.34 503.284 405.162 507.712 400.356C508.846 393.768 510.682 383.454 513.004 370.71C518.458 340.902 519.538 337.338 520.402 328.05C522.778 302.724 519.106 281.178 517.972 281.178Z" fill="#6C6D6D"/>
<path d="M346.414 321.3C345.388 320.598 343.336 319.302 343.552 318.222C343.984 316.494 350.194 316.224 354.676 316.98C357.7 317.466 363.208 319.032 368.986 324.486C362.506 325.404 353.164 325.674 346.414 321.3Z" fill="white" stroke="#191919" stroke-width="2" stroke-miterlimit="10"/>
<path d="M498.856 269.568C488.002 266.382 475.312 281.016 474.178 282.42C469.858 287.55 468.832 291.222 464.782 301.158C454.954 325.458 449.824 337.716 440.104 344.088C431.41 349.812 422.284 350.028 419.854 350.028C409.648 349.974 401.224 344.898 384.808 334.746C370.984 326.16 369.58 323.568 361.588 321.408C357.538 320.328 345.658 317.088 336.424 323.406C330.538 327.402 326.92 334.854 328.54 336.744C330.592 339.174 341.608 333.45 341.662 333.666C341.716 333.774 338.476 334.692 335.56 337.284C334.102 338.526 331.51 341.226 332.104 342.198C333.184 344.034 343.012 335.61 351.76 338.742C357.7 340.848 358.024 346.518 364.99 348.732C369.094 350.028 372.982 349.326 375.466 348.624C378.814 353.646 384.484 360.828 393.232 367.362C398.47 371.25 416.938 384.642 442.588 382.644C469.804 380.538 486.328 362.556 491.458 356.994C494.428 353.808 515.974 329.67 512.68 298.242C512.194 293.112 510.088 272.916 498.856 269.568Z" fill="white" stroke="#191919" stroke-width="2" stroke-miterlimit="10"/>
<path opacity="0.25" d="M497.668 269.568C493.564 270.918 498.694 285.552 494.536 304.722C490.594 323.136 480.226 335.556 475.528 341.226C469.21 348.84 460.948 358.776 446.854 363.852C427.954 370.656 406.732 365.85 392.53 356.94C388.318 354.24 384.754 347.274 375.304 341.82C371.2 339.444 367.906 338.256 363.964 336.798C354.46 333.342 345.928 330.21 337.234 332.964C333.076 334.26 329.35 336.744 329.566 337.176C329.782 337.662 334.588 336.096 338.908 334.638C333.13 340.092 332.05 341.766 332.32 342.198C332.644 342.63 334.372 341.496 338.422 340.092C342.85 338.526 345.928 337.5 349.492 338.364C351.274 338.796 352.57 339.606 353.38 340.092C356.35 341.928 356.836 343.71 359.752 345.816C361.534 347.112 363.154 347.76 364.018 348.084C365.8 348.786 369.58 349.92 374.926 348.948C378.598 354.24 395.608 377.676 425.47 381.996C440.86 384.21 453.01 380.43 457.816 378.864C484.168 370.332 497.506 349.92 500.962 344.25C511.654 326.754 518.944 299.43 507.928 279.774C505.336 274.86 500.476 268.65 497.668 269.568Z" fill="#6C6D6D"/>
<path d="M329.512 336.906C332.374 333.936 335.722 331.776 339.61 330.48C340.366 330.21 340.042 329.076 339.286 329.292C335.236 330.696 331.618 332.964 328.648 336.042C328.108 336.636 328.972 337.5 329.512 336.906Z" fill="#191919"/>
<path d="M331.456 329.67C334.318 326.484 338.314 325.242 342.31 324.108C343.066 323.892 342.742 322.704 341.986 322.92C337.828 324.162 333.616 325.512 330.646 328.806C330.052 329.4 330.916 330.21 331.456 329.67Z" fill="#191919"/>
<path opacity="0.29" d="M511.006 292.788C509.17 298.404 506.2 306.504 501.826 315.9C493.132 334.422 485.302 351.108 470.02 362.934C451.174 377.514 428.602 378.756 415.912 378.162C424.822 381.78 432.22 382.536 436.918 382.644C472.666 383.4 497.722 349.542 505.498 334.314C506.848 331.614 509.656 325.998 511.276 318.006C513.382 307.26 512.14 298.242 511.006 292.788Z" fill="#6C6D6D"/>
<path opacity="0.26" d="M353.056 338.202C356.08 340.308 360.346 342.792 365.8 344.736C370.12 346.248 374.062 347.004 377.194 347.382C368.5 350.244 364.45 349.11 362.344 347.382C361.048 346.302 359.698 344.304 355.648 340.578C354.622 339.552 353.704 338.742 353.056 338.202Z" fill="#6C6D6D"/>
<path d="M415.156 160.65C414.562 164.106 413.968 167.562 413.482 171.18C411.376 185.868 410.512 199.746 410.458 212.652C413.428 212.328 416.344 212.004 419.314 211.734C418.99 214.596 418.072 225.072 424.768 235.44C431.086 245.214 440.158 248.778 442.966 249.75C442.642 255.042 442.372 260.28 442.048 265.572C447.88 260.388 455.818 254.286 465.916 248.832C473.638 244.674 480.928 241.812 487.138 239.868C480.172 231.228 477.526 223.074 476.392 218.376C474.448 210.276 474.826 203.31 475.204 197.154C475.582 190.836 476.5 185.598 477.31 181.926C479.848 170.37 473.206 152.064 459.976 145.476C446.908 138.942 427.414 144.45 415.156 160.65Z" fill="white" stroke="#161616" stroke-width="2" stroke-miterlimit="10"/>
<path d="M418.072 212.112C419.584 211.896 421.15 211.734 422.662 211.572C423.202 211.518 423.202 210.708 422.662 210.762C421.042 210.924 419.476 211.14 417.856 211.356C417.37 211.356 417.586 212.166 418.072 212.112Z" fill="#161616"/>
<path d="M466.78 169.02C460.246 170.694 459.058 176.364 450.796 188.19C442.426 200.178 437.134 207.684 427.684 212.058C421.582 214.866 418.558 214.11 415.858 217.728C411.214 223.992 414.346 234.306 417.1 239.598C420.286 245.7 425.146 249.372 429.142 252.396C432.976 255.258 436.486 257.148 438.97 258.282C436.324 254.232 436.162 252.99 436.486 252.612C437.35 251.748 441.022 256.392 445.342 255.798C446.584 255.636 448.798 254.934 453.712 247.212C457.06 241.974 459.328 238.356 460.84 233.172C464.134 222.048 459.49 219.024 460.84 204.39C461.056 202.176 462.568 184.842 468.724 183.708C470.938 183.276 473.206 185.112 474.286 186.516C476.554 189.486 476.284 194.238 473.476 198.342C474.394 197.694 483.196 191.754 483.088 182.088C483.088 180.576 483.034 175.014 478.822 171.396C474.016 167.292 467.32 168.912 466.78 169.02Z" fill="#161616" stroke="#161616" stroke-width="2" stroke-miterlimit="10"/>
<path d="M423.256 193.59C424.509 193.59 425.524 191.777 425.524 189.54C425.524 187.303 424.509 185.49 423.256 185.49C422.003 185.49 420.988 187.303 420.988 189.54C420.988 191.777 422.003 193.59 423.256 193.59Z" fill="#161616"/>
<path d="M405.976 195.48C407.229 195.48 408.244 193.667 408.244 191.43C408.244 189.193 407.229 187.38 405.976 187.38C404.723 187.38 403.708 189.193 403.708 191.43C403.708 193.667 404.723 195.48 405.976 195.48Z" fill="#161616"/>
<path d="M402.574 184.788C404.032 183.114 406.3 182.952 407.92 184.572C408.676 185.328 409.81 184.14 409.054 183.438C406.84 181.278 403.438 181.332 401.386 183.654C400.792 184.464 401.926 185.598 402.574 184.788Z" fill="#161616"/>
<path d="M420.286 181.98C422.176 180.414 424.66 180.63 426.28 182.412C426.982 183.168 428.116 182.034 427.414 181.278C425.146 178.848 421.636 178.74 419.098 180.846C418.342 181.494 419.476 182.628 420.286 181.98Z" fill="#161616"/>
<path d="M413.32 167.076C413.914 163.188 415.426 156.816 419.584 150.228C421.042 147.906 424.174 142.992 429.142 139.644C438.646 133.326 453.28 133.812 463.918 141.588C474.34 149.202 479.524 162.81 477.256 176.31C455.926 173.286 434.65 170.208 413.32 167.076Z" fill="#494949"/>
<path d="M378.436 167.562C411.214 171.774 444.046 175.986 476.824 180.144C479.902 180.522 479.902 175.662 476.824 175.284C444.046 171.072 411.214 166.86 378.436 162.702C375.358 162.27 375.358 167.13 378.436 167.562Z" fill="#161616"/>
<path d="M441.076 135.702C449.5 137.538 455.872 144.342 456.952 152.496C457.924 159.624 454.792 166.86 448.852 171.288C458.194 172.53 467.59 173.826 476.932 175.068C477.418 172.584 477.85 168.804 477.256 164.376C475.852 154.008 469.858 147.366 467.914 145.368C465.808 143.208 458.356 135.972 447.286 135.324C444.748 135.216 442.588 135.432 441.076 135.702Z" fill="#333333"/>
</svg>
