<?xml version="1.0" standalone="no"?>
<!DOCTYPE svg PUBLIC "-//W3C//DTD SVG 20010904//EN"
 "http://www.w3.org/TR/2001/REC-SVG-20010904/DTD/svg10.dtd">
<svg version="1.0" xmlns="http://www.w3.org/2000/svg"
 width="824.000000pt" height="617.000000pt" viewBox="0 0 824.000000 617.000000"
 preserveAspectRatio="xMidYMid meet">

<g transform="translate(0.000000,617.000000) scale(0.100000,-0.100000)"
fill="#000000" stroke="none">
<path d="M5433 5399 c-41 -20 -70 -48 -103 -98 l-15 -22 -109 45 c-115 49
-131 52 -142 35 -11 -18 15 -34 119 -74 53 -21 97 -42 97 -47 0 -4 -5 -17 -11
-27 -12 -17 -13 -17 -30 0 -20 20 -65 27 -54 9 3 -5 15 -10 25 -10 11 0 23 -8
28 -17 8 -14 -4 -40 -49 -110 -32 -52 -53 -93 -46 -93 7 0 22 -6 32 -14 18
-13 17 -14 -13 -30 -65 -34 -109 -160 -82 -240 14 -44 53 -92 89 -111 17 -8
49 -12 84 -10 31 2 57 1 57 -1 0 -2 -12 -10 -28 -18 -15 -8 -43 -31 -62 -51
-19 -20 -47 -43 -62 -51 -15 -7 -74 -61 -132 -118 -140 -139 -253 -216 -316
-216 -60 0 -124 46 -168 119 -16 27 -19 44 -15 86 3 29 3 65 -1 79 -8 33 -47
44 -81 22 -36 -23 -41 -21 -55 28 -12 42 -11 46 15 80 86 113 -6 311 -136 293
-58 -8 -105 -42 -130 -93 -19 -40 -20 -51 -10 -83 15 -53 50 -102 91 -128 54
-35 57 -39 64 -77 5 -27 3 -41 -9 -52 -35 -36 18 -184 84 -231 22 -15 54 -52
71 -81 45 -75 140 -173 197 -204 117 -63 241 -61 406 7 16 7 17 -2 17 -104 l0
-111 -57 -45 c-112 -88 -234 -132 -338 -120 -39 5 -57 2 -82 -14 -27 -17 -32
-27 -38 -74 l-7 -55 -232 -155 c-127 -85 -409 -282 -626 -438 -217 -155 -505
-361 -640 -458 -449 -321 -919 -628 -1229 -801 l-114 -64 -41 46 c-48 54 -101
88 -137 88 -44 0 -114 -37 -156 -83 -61 -66 -73 -118 -48 -203 5 -14 -7 -38
-40 -83 -26 -35 -44 -69 -41 -77 3 -8 24 -23 46 -33 40 -18 40 -18 20 -36 -23
-21 -26 -53 -6 -61 8 -3 33 0 57 6 36 10 45 9 54 -3 6 -9 22 -18 36 -22 32 -8
144 47 232 113 60 46 74 52 116 52 58 0 185 31 239 59 35 18 41 19 46 5 3 -9
6 -18 6 -20 0 -2 -26 -16 -57 -29 -120 -53 -107 -70 53 -73 126 -2 249 12 270
29 7 6 14 29 16 52 l3 42 1003 3 1002 2 -25 -50 c-29 -58 -20 -56 -185 -35
-148 20 -305 17 -305 -5 0 -30 196 -118 523 -235 73 -26 134 -46 136 -44 2 2
30 85 63 184 l60 180 676 3 677 2 -26 -57 c-110 -240 -146 -353 -114 -353 23
0 145 128 255 269 l110 139 778 1 c684 1 777 3 777 16 0 13 -91 15 -760 15
-418 0 -760 3 -760 6 0 4 16 28 35 54 l35 48 -175 127 -175 127 6 38 c8 50 -8
96 -62 175 -25 36 -62 100 -84 143 -71 144 -169 471 -206 693 -17 102 -17 109
0 180 21 84 34 279 19 279 -5 0 -10 -38 -10 -87 -2 -229 -95 -435 -350 -779
-69 -93 -155 -212 -190 -265 -74 -114 -169 -306 -214 -437 -54 -158 -93 -197
-194 -197 -46 0 -69 5 -81 16 -15 16 -12 18 37 34 52 17 85 35 63 35 -6 0 -57
-16 -114 -35 -131 -44 -160 -45 -194 -5 -35 42 -42 90 -23 159 12 41 706 1578
723 1599 1 2 47 -3 102 -12 100 -16 369 -22 431 -10 18 4 31 13 31 21 0 34 83
341 150 558 88 284 117 409 125 550 6 103 5 113 -17 152 -25 45 -103 116 -155
141 -43 20 -52 53 -63 235 -9 141 -9 142 14 167 23 24 24 33 25 155 0 111 -3
136 -20 173 -51 104 -177 150 -276 101z m-9 -211 c59 -23 106 -44 106 -47 0
-4 -16 -15 -36 -26 -20 -11 -57 -43 -83 -71 -25 -28 -57 -57 -70 -64 -27 -14
-131 -20 -131 -8 0 4 8 8 18 9 9 1 -2 5 -26 11 -30 6 -40 13 -35 22 79 127
138 216 144 216 4 0 55 -19 113 -42z m176 -158 c15 -28 4 -57 -28 -74 -24 -13
-25 -15 -9 -22 10 -3 38 -4 63 0 l44 6 0 -108 c1 -95 14 -203 35 -283 6 -26 4
-28 -45 -38 -28 -6 -82 -11 -121 -11 -73 0 -205 25 -214 41 -8 12 12 48 46 84
48 51 86 153 119 317 6 31 20 68 31 82 25 32 64 34 79 6z m-1292 -217 c-10 -2
-28 -2 -40 0 -13 2 -5 4 17 4 22 1 32 -1 23 -4z m-113 -49 c-28 -41 -33 -104
-11 -142 31 -56 115 -79 176 -47 33 17 54 75 45 122 -4 23 -4 24 4 8 13 -28
13 -92 0 -118 -6 -12 -22 -31 -35 -42 l-23 -20 18 -59 c14 -47 16 -65 7 -88
-9 -25 -8 -32 8 -43 10 -8 23 -12 27 -9 8 5 46 -103 38 -110 -2 -2 -20 -6 -39
-8 l-35 -3 -6 75 c-8 84 -21 128 -44 136 -8 3 -17 22 -21 42 -9 49 -21 72 -39
72 -26 0 -93 70 -110 115 -21 53 -8 103 32 135 35 28 36 26 8 -16z m85 14 c0
-28 -55 -176 -63 -171 -5 3 -16 21 -24 40 -18 43 -4 93 34 123 29 22 53 26 53
8z m59 2 c28 -15 53 -87 46 -131 -8 -44 -20 -56 -63 -65 -38 -8 -39 -3 -11 71
11 30 19 60 17 67 -2 6 -17 -23 -32 -65 -21 -56 -31 -74 -42 -70 -8 3 -13 12
-10 19 3 8 17 52 32 99 14 47 31 85 36 85 5 0 17 -4 27 -10z m1510 -305 c73
-37 81 -166 20 -295 -52 -109 -138 -217 -295 -370 -243 -237 -451 -370 -667
-426 -73 -19 -78 -22 -130 -94 -50 -70 -64 -80 -102 -80 l-31 0 4 63 c3 34 9
64 14 65 5 3 5 9 0 15 -5 7 -11 29 -14 49 -4 34 -2 37 28 43 31 5 69 35 46 35
-6 0 -14 -4 -17 -10 -10 -16 -55 -11 -81 9 l-24 19 99 4 c92 3 104 6 185 46
148 74 281 214 566 597 154 207 235 295 301 328 42 21 62 21 98 2z m-715 -82
c-54 -121 -75 -205 -87 -346 l-11 -137 -56 -22 c-45 -18 -75 -22 -165 -23
-100 0 -115 3 -165 27 -79 39 -122 79 -179 164 -56 83 -60 94 -32 94 10 0 24
7 32 16 10 13 9 28 -10 92 -20 69 -21 77 -7 88 27 19 18 24 -19 8 -32 -13 -36
-13 -42 3 -9 22 52 73 88 73 35 0 41 -19 33 -100 l-6 -67 43 -53 c24 -29 63
-64 87 -76 l43 -23 -33 -4 c-27 -3 -25 -4 12 -5 33 -2 64 7 115 32 89 42 156
95 277 218 53 54 99 98 102 98 3 0 -6 -26 -20 -57z m-809 -3 c3 -5 2 -10 -4
-10 -5 0 -16 -3 -25 -6 -11 -4 -16 -1 -16 10 0 18 35 22 45 6z m10 -29 c3 -5
-6 -21 -20 -35 -26 -26 -40 -21 -28 11 11 29 36 42 48 24z m15 -51 c0 -5 -9
-19 -20 -30 l-20 -20 0 23 c0 13 3 27 7 30 10 11 33 8 33 -3z m-3 -59 c-2 -10
0 -26 5 -35 6 -10 5 -16 -1 -16 -15 0 -32 36 -25 54 9 22 27 20 21 -3z m249
-865 c6 -27 5 -28 -15 -16 -28 15 -38 40 -20 51 17 10 26 2 35 -35z m462 -95
c-2 -61 1 -112 6 -114 5 -2 -150 -349 -344 -772 -194 -424 -359 -787 -366
-809 -29 -82 -9 -192 40 -218 11 -6 22 -12 24 -13 2 -2 -8 -26 -22 -54 l-26
-51 -1006 0 -1006 0 7 23 c3 12 9 44 12 72 4 30 13 55 24 65 10 8 25 31 33 51
13 30 13 39 2 54 -19 26 -61 13 -77 -24 l-13 -29 -39 33 c-78 67 -165 68 -377
5 -126 -37 -190 -53 -190 -46 0 3 30 21 67 42 349 194 804 494 1408 929 600
432 853 611 1078 763 l232 156 6 -40 c4 -21 3 -46 -2 -56 -6 -11 -3 -23 9 -38
14 -17 32 -22 95 -27 l77 -6 30 34 c17 19 45 54 63 79 30 42 41 48 137 80 58
20 109 33 114 29 4 -4 7 -57 4 -118z m-458 42 c0 -18 -15 -17 -34 3 -24 23
-19 35 9 22 14 -6 25 -17 25 -25z m0 -45 c0 -24 -15 -23 -40 2 -29 29 -25 40
10 27 18 -7 30 -19 30 -29z m0 -53 c0 -27 -10 -31 -41 -15 -30 17 -24 40 11
40 25 0 30 -4 30 -25z m1054 -824 c60 -231 154 -465 230 -571 53 -73 68 -108
68 -159 0 -43 -4 -49 -53 -93 -30 -26 -55 -45 -57 -43 -2 2 3 18 12 36 20 39
14 50 -9 16 -8 -13 -20 -53 -26 -88 -17 -106 -57 -142 -132 -119 -50 15 -101
67 -176 181 -105 159 -195 361 -251 561 l-18 67 65 86 c101 135 197 287 239
380 l38 85 22 -117 c12 -65 34 -165 48 -222z m-380 -376 c57 -171 152 -367
243 -499 85 -123 125 -157 192 -164 45 -4 53 -2 80 25 l30 30 88 -83 88 -83
-679 -1 c-616 0 -678 1 -672 16 3 9 9 27 12 40 3 13 11 24 18 24 30 0 89 23
116 47 38 31 60 73 105 200 53 147 155 344 247 475 45 64 83 116 84 115 2 -1
23 -65 48 -142z m-3694 -488 c23 -16 90 -92 90 -101 0 -4 -7 -18 -16 -32 l-17
-25 -24 41 c-13 22 -28 40 -34 40 -5 0 3 -18 17 -40 38 -57 46 -163 14 -202
-14 -19 -31 -28 -49 -28 -46 0 -81 55 -102 160 -14 72 -36 111 -25 45 4 -22
12 -60 18 -85 9 -38 8 -51 -6 -77 -31 -62 -104 -123 -146 -123 -24 0 -29 5
-34 35 -6 30 -2 43 23 77 17 23 31 51 31 62 0 16 3 17 12 8 20 -20 29 -13 13
11 -13 21 -13 25 1 45 8 12 11 22 6 22 -5 0 -17 -10 -25 -22 -16 -22 -16 -22
-16 20 -1 50 10 74 53 120 70 76 152 94 216 49z m672 -22 c46 -19 95 -76 104
-120 3 -19 3 -54 0 -77 -4 -24 -10 -73 -14 -110 -4 -36 -10 -70 -14 -73 -10
-10 -77 -22 -172 -30 -96 -9 -101 7 -11 40 65 25 77 38 46 55 -12 6 -28 24
-36 40 -26 51 -18 98 28 148 11 12 16 22 10 22 -18 0 -44 -36 -61 -86 -17 -46
-23 -51 -92 -86 -84 -42 -161 -64 -259 -75 -59 -6 -73 -12 -136 -59 -75 -56
-167 -104 -201 -104 -12 0 -27 6 -33 14 -14 16 -7 22 103 89 38 23 83 59 100
80 27 34 31 47 32 100 0 47 6 72 25 104 21 38 29 43 69 49 34 4 262 65 335 89
29 10 147 3 177 -10z m176 -21 c3 -22 -33 -84 -48 -84 -28 0 -23 65 6 95 20
20 38 15 42 -11z m-266 -291 c12 -13 20 -24 17 -26 -27 -19 -162 -67 -186 -67
-49 0 -40 14 28 44 55 24 60 28 57 54 -2 20 4 32 22 44 24 17 25 17 33 -5 4
-12 18 -32 29 -44z m-611 -28 l33 -12 -54 -36 c-30 -20 -59 -37 -64 -37 -5 0
-30 -13 -55 -29 -55 -35 -106 -48 -117 -30 -5 9 17 35 63 78 39 36 81 81 93
99 l23 34 22 -28 c12 -15 37 -33 56 -39z"/>
<path d="M5305 5170 c3 -5 12 -10 19 -10 8 0 19 -7 26 -15 7 -9 15 -13 18 -10
9 9 -31 45 -50 45 -11 0 -16 -4 -13 -10z"/>
<path d="M5302 5116 c2 -15 8 -26 13 -26 15 0 12 43 -3 48 -10 3 -13 -4 -10
-22z"/>
<path d="M6757 1153 c-4 -3 -7 -10 -7 -15 0 -4 248 -8 551 -8 436 0 550 3 547
13 -4 9 -123 13 -545 15 -297 1 -543 -1 -546 -5z"/>
<path d="M1877 1054 c-4 -4 -4 -11 -1 -15 3 -5 207 -9 455 -9 392 0 449 2 449
15 0 13 -56 15 -448 15 -247 0 -452 -3 -455 -6z"/>
<path d="M907 914 c-4 -4 -4 -11 -1 -15 3 -5 189 -9 415 -9 357 0 409 2 409
15 0 13 -52 15 -408 15 -225 0 -412 -3 -415 -6z"/>
<path d="M3077 763 c-4 -3 -7 -10 -7 -15 0 -4 277 -8 615 -8 540 0 615 2 615
15 0 13 -74 15 -608 15 -335 0 -612 -3 -615 -7z"/>
</g>
</svg>
