<svg width="65" height="65" viewBox="0 0 65 65" fill="none" xmlns="http://www.w3.org/2000/svg">
<path d="M32.503 0C23.6765 0 22.5688 0.0385944 19.1021 0.196355C15.6421 0.354792 13.2805 0.902552 11.214 1.70625C9.0764 2.53635 7.26315 3.64677 5.45667 5.45391C3.64884 7.26036 2.53841 9.07359 1.70559 11.2105C0.899853 13.2776 0.35141 15.6399 0.195679 19.0985C0.0406251 22.5652 0 23.6735 0 32.5C0 41.3265 0.0392719 42.4308 0.196357 45.8974C0.355473 49.3573 0.903239 51.719 1.70627 53.7855C2.53706 55.923 3.64749 57.7363 5.45464 59.5427C7.26044 61.3505 9.07369 62.4636 11.2099 63.2938C13.2777 64.0975 15.6401 64.6452 19.0994 64.8036C22.5661 64.9614 23.6731 65 32.499 65C41.3262 65 42.4305 64.9614 45.8973 64.8036C49.3572 64.6452 51.7216 64.0975 53.7894 63.2938C55.9263 62.4636 57.7369 61.3505 59.5427 59.5427C61.3505 57.7363 62.4609 55.923 63.2937 53.7861C64.0927 51.719 64.6411 49.3567 64.8036 45.8981C64.9594 42.4315 65 41.3265 65 32.5C65 23.6735 64.9594 22.5658 64.8036 19.0992C64.6411 15.6393 64.0927 13.2776 63.2937 11.2111C62.4609 9.07359 61.3505 7.26036 59.5427 5.45391C57.7348 3.64609 55.927 2.53568 53.7874 1.70625C51.7155 0.902552 49.3524 0.354792 45.8925 0.196355C42.4258 0.0385944 41.3221 0 32.4929 0H32.503ZM29.5875 5.85677C30.4528 5.85542 31.4183 5.85677 32.503 5.85677C41.1806 5.85677 42.2091 5.88792 45.6359 6.04365C48.8047 6.18854 50.5245 6.71802 51.6701 7.16286C53.1868 7.75193 54.2681 8.45609 55.405 9.59359C56.5425 10.7311 57.2466 11.8144 57.8371 13.3311C58.2819 14.4754 58.8121 16.1952 58.9563 19.3639C59.112 22.7899 59.1459 23.8191 59.1459 32.4925C59.1459 41.166 59.112 42.1952 58.9563 45.6212C58.8114 48.7899 58.2819 50.5097 57.8371 51.654C57.248 53.1707 56.5425 54.2506 55.405 55.3874C54.2674 56.5249 53.1875 57.2291 51.6701 57.8182C50.5258 58.265 48.8047 58.7932 45.6359 58.9381C42.2098 59.0938 41.1806 59.1277 32.503 59.1277C23.8248 59.1277 22.7963 59.0938 19.3702 58.9381C16.2014 58.7918 14.4816 58.2623 13.3353 57.8175C11.8186 57.2284 10.7353 56.5243 9.59776 55.3868C8.46024 54.2493 7.75607 53.1686 7.16565 51.6513C6.7208 50.507 6.19064 48.7872 6.04642 45.6185C5.89069 42.1924 5.85954 41.1633 5.85954 32.4844C5.85954 23.8056 5.89069 22.7818 6.04642 19.3558C6.19132 16.187 6.7208 14.4672 7.16565 13.3216C7.75472 11.8049 8.46024 10.7216 9.59776 9.58411C10.7353 8.44661 11.8186 7.74245 13.3353 7.15203C14.4809 6.70516 16.2014 6.17703 19.3702 6.03146C22.3684 5.89604 23.5302 5.85542 29.5875 5.84865V5.85677ZM49.8515 11.2531C47.6983 11.2531 45.9514 12.998 45.9514 15.1518C45.9514 17.3049 47.6983 19.0518 49.8515 19.0518C52.0046 19.0518 53.7515 17.3049 53.7515 15.1518C53.7515 12.9986 52.0046 11.2518 49.8515 11.2518V11.2531ZM32.503 15.8099C23.2858 15.8099 15.8128 23.2829 15.8128 32.5C15.8128 41.7171 23.2858 49.1867 32.503 49.1867C41.7203 49.1867 49.1906 41.7171 49.1906 32.5C49.1906 23.2829 41.7203 15.8099 32.503 15.8099ZM32.503 21.6667C38.4858 21.6667 43.3365 26.5166 43.3365 32.5C43.3365 38.4827 38.4858 43.3333 32.503 43.3333C26.5196 43.3333 21.6696 38.4827 21.6696 32.5C21.6696 26.5166 26.5196 21.6667 32.503 21.6667Z" fill="white"/>
</svg>
