<svg width="65" height="65" viewBox="0 0 65 65" fill="none" xmlns="http://www.w3.org/2000/svg">
<path d="M32.5 0C14.5437 0 0 14.5437 0 32.5C0 46.8812 9.30312 59.0281 22.2219 63.3344C23.8469 63.6188 24.4562 62.6437 24.4562 61.7906C24.4562 61.0187 24.4156 58.4594 24.4156 55.7375C16.25 57.2406 14.1375 53.7469 13.4875 51.9188C13.1219 50.9844 11.5375 48.1 10.1562 47.3281C9.01875 46.7188 7.39375 45.2156 10.1156 45.175C12.675 45.1344 14.5031 47.5312 15.1125 48.5062C18.0375 53.4219 22.7094 52.0406 24.5781 51.1875C24.8625 49.075 25.7156 47.6531 26.65 46.8406C19.4188 46.0281 11.8625 43.225 11.8625 30.7937C11.8625 27.2594 13.1219 24.3344 15.1938 22.0594C14.8687 21.2469 13.7312 17.9156 15.5188 13.4469C15.5188 13.4469 18.2406 12.5938 24.4562 16.7781C27.0562 16.0469 29.8188 15.6812 32.5813 15.6812C35.3438 15.6812 38.1063 16.0469 40.7063 16.7781C46.9219 12.5531 49.6437 13.4469 49.6437 13.4469C51.4313 17.9156 50.2938 21.2469 49.9688 22.0594C52.0406 24.3344 53.3 27.2188 53.3 30.7937C53.3 43.2656 45.7031 46.0281 38.4719 46.8406C39.65 47.8563 40.6656 49.8063 40.6656 52.8531C40.6656 57.2 40.625 60.6937 40.625 61.7906C40.625 62.6437 41.2344 63.6594 42.8594 63.3344C49.3112 61.1563 54.9176 57.0098 58.8893 51.4785C62.8611 45.9472 64.9983 39.3096 65 32.5C65 14.5437 50.4562 0 32.5 0Z" fill="white"/>
</svg>
