<svg width="66" height="65" viewBox="0 0 66 65" fill="none" xmlns="http://www.w3.org/2000/svg">
<path d="M64.1244 26.6438C64.5124 28.8171 64.6943 31.0383 64.6943 33.2474C64.6943 43.135 61.1052 51.4941 54.8607 57.1544H54.8729C49.4044 62.1221 41.8988 65 32.9989 65C20.522 65 9.11213 58.0739 3.51027 47.0996C-1.17008 37.9166 -1.17009 27.0975 3.51026 17.9145C9.11213 6.92828 20.522 0.00219006 32.9989 0.00219006C41.1956 -0.0933423 49.1134 2.93981 55.079 8.4568L45.6577 17.7354C42.2505 14.535 37.7035 12.7916 32.9989 12.8632C24.39 12.8632 17.0784 18.5832 14.4715 26.2855C13.0892 30.3218 13.0892 34.6924 14.4715 38.7286H14.4836C17.1027 46.419 24.4021 52.139 33.011 52.139C37.461 52.139 41.2804 51.0165 44.239 49.0342H44.2269C47.7068 46.7653 50.0834 43.1947 50.823 39.1585H32.9989V26.6438H64.1244Z" fill="white"/>
</svg>
