<svg width="65" height="65" viewBox="0 0 65 65" fill="none" xmlns="http://www.w3.org/2000/svg">
<path d="M0 4.65619C0 2.08533 2.13693 0 4.77309 0H60.2269C62.863 0 65 2.08534 65 4.65619V60.3438C65 62.9155 62.863 65 60.2269 65L4.77309 65C2.13693 65 0 62.9155 0 60.3438V4.65619ZM20.0825 54.4117V25.0606H10.3267V54.4117H20.0825ZM15.2045 21.0532C18.6066 21.0532 20.7241 18.7993 20.7241 15.9827C20.6607 13.1027 18.6066 10.9114 15.2691 10.9114C11.9319 10.9114 9.75 13.1027 9.75 15.9827C9.75 18.7993 11.867 21.0532 15.141 21.0532H15.2045ZM35.1463 54.4117V38.0208C35.1463 37.1436 35.2097 36.2672 35.4673 35.6402C36.1726 33.8875 37.7778 32.0722 40.4728 32.0722C44.003 32.0722 45.4151 34.7638 45.4151 38.7096V54.4117H55.17V37.5822C55.17 28.5668 50.3571 24.3718 43.9385 24.3718C38.7634 24.3718 36.4431 27.2162 35.1466 29.2162V29.3173H35.0814C35.1028 29.2838 35.1246 29.2501 35.1466 29.2162V25.0606H25.3909C25.5189 27.8147 25.3909 54.4117 25.3909 54.4117H35.1463Z" fill="white"/>
</svg>
