<svg width="63" height="63" viewBox="0 0 63 63" fill="none" xmlns="http://www.w3.org/2000/svg">
<path d="M56.524 18.6682C56.564 19.2278 56.564 19.7875 56.564 20.3472C56.564 37.4162 43.5724 57.0838 19.8274 57.0838C12.512 57.0838 5.71639 54.965 0 51.2875C1.03938 51.4074 2.03864 51.4474 3.11801 51.4474C9.15407 51.4474 14.7106 49.4087 19.1478 45.9309C13.4714 45.811 8.71443 42.0934 7.07544 36.9766C7.875 37.0964 8.67444 37.1764 9.51398 37.1764C10.6732 37.1764 11.8326 37.0164 12.9118 36.7368C6.99558 35.5374 2.55827 30.3408 2.55827 24.0648V23.9049C4.27711 24.8643 6.27601 25.4639 8.3945 25.5438C4.91671 23.2252 2.63825 19.2678 2.63825 14.7906C2.63825 12.3922 3.27772 10.1936 4.39708 8.27478C10.7531 16.1098 20.307 21.2264 31.0201 21.7862C30.8203 20.8268 30.7003 19.8275 30.7003 18.8281C30.7003 11.7126 36.4567 5.91634 43.6121 5.91634C47.3297 5.91634 50.6876 7.47534 53.0461 9.99374C55.9642 9.43412 58.7624 8.35476 61.2409 6.87573C60.2814 9.87389 58.2428 12.3923 55.5645 13.9912C58.1629 13.7115 60.6813 12.9918 62.9998 11.9925C61.2412 14.5508 59.0424 16.8292 56.524 18.6682V18.6682Z" fill="white"/>
</svg>
